<svg width="134" height="49" viewBox="0 0 134 49" fill="none" xmlns="http://www.w3.org/2000/svg">
<g opacity="0.16">
<g filter="url(#filter0_bi_1_4063)">
<path d="M12.8974 3.52845V-8.35404L14.0277 -7.27381V2.25533H22.3171L23.259 3.52845H12.8974Z" fill="url(#paint0_radial_1_4063)"/>
<path d="M12.8974 3.52845V15.4109L14.0277 14.3307V4.80157H22.3171L23.259 3.52845H12.8974Z" fill="url(#paint1_radial_1_4063)"/>
<path d="M12.8974 3.52845V-8.35404L11.767 -7.27381V2.25533H3.47771L2.53574 3.52845H12.8974Z" fill="url(#paint2_radial_1_4063)"/>
<path d="M12.8974 3.52845V15.4109L11.767 14.3307V4.80157H3.47771L2.53574 3.52845H12.8974Z" fill="url(#paint3_radial_1_4063)"/>
<path d="M12.8974 3.52845V-8.35404M12.8974 3.52845H23.259M12.8974 3.52845V15.4109M12.8974 3.52845H2.53574M12.8974 -8.35404L14.0277 -7.27381V2.25533H22.3171L23.259 3.52845M12.8974 -8.35404L11.767 -7.27381V2.25533H3.47771L2.53574 3.52845M12.8974 -8.35404V-16.9663M23.259 3.52845L22.3171 4.80157H14.0277V14.3307L12.8974 15.4109M23.259 3.52845H70.7948M12.8974 15.4109L11.767 14.3307V4.80157H3.47771L2.53574 3.52845M12.8974 15.4109V24.0232M2.53574 3.52845H-5" stroke="url(#paint4_radial_1_4063)" stroke-width="0.0794116"/>
</g>
<g filter="url(#filter1_bi_1_4063)">
<path d="M12.8974 44.5709V32.6884L14.0277 33.7687V43.2978H22.3171L23.259 44.5709H12.8974Z" fill="url(#paint5_radial_1_4063)"/>
<path d="M12.8974 44.5709V56.4534L14.0277 55.3732V45.844H22.3171L23.259 44.5709H12.8974Z" fill="url(#paint6_radial_1_4063)"/>
<path d="M12.8974 44.5709V32.6884L11.767 33.7687V43.2978H3.47771L2.53574 44.5709H12.8974Z" fill="url(#paint7_radial_1_4063)"/>
<path d="M12.8974 44.5709V56.4534L11.767 55.3732V45.844H3.47771L2.53574 44.5709H12.8974Z" fill="url(#paint8_radial_1_4063)"/>
<path d="M12.8974 44.5709V32.6884M12.8974 44.5709H23.259M12.8974 44.5709V56.4534M12.8974 44.5709H2.53574M12.8974 32.6884L14.0277 33.7687V43.2978H22.3171L23.259 44.5709M12.8974 32.6884L11.767 33.7687V43.2978H3.47771L2.53574 44.5709M12.8974 32.6884V24.0762M23.259 44.5709L22.3171 45.844H14.0277V55.3732L12.8974 56.4534M23.259 44.5709H70.7948M12.8974 56.4534L11.767 55.3732V45.844H3.47771L2.53574 44.5709M12.8974 56.4534V65.0657M2.53574 44.5709H-5" stroke="url(#paint9_radial_1_4063)" stroke-width="0.0794116"/>
</g>
<g filter="url(#filter2_bi_1_4063)">
<path d="M120.692 3.52845V-8.35404L121.823 -7.27381V2.25533H130.112L131.054 3.52845H120.692Z" fill="url(#paint10_radial_1_4063)"/>
<path d="M120.692 3.52845V15.4109L121.823 14.3307V4.80157H130.112L131.054 3.52845H120.692Z" fill="url(#paint11_radial_1_4063)"/>
<path d="M120.692 3.52845V-8.35404L119.562 -7.27381V2.25533H111.273L110.331 3.52845H120.692Z" fill="url(#paint12_radial_1_4063)"/>
<path d="M120.692 3.52845V15.4109L119.562 14.3307V4.80157H111.273L110.331 3.52845H120.692Z" fill="url(#paint13_radial_1_4063)"/>
<path d="M120.692 3.52845V-8.35404M120.692 3.52845H131.054M120.692 3.52845V15.4109M120.692 3.52845H110.331M120.692 -8.35404L121.823 -7.27381V2.25533H130.112L131.054 3.52845M120.692 -8.35404L119.562 -7.27381V2.25533H111.273L110.331 3.52845M120.692 -8.35404V-16.9663M131.054 3.52845L130.112 4.80157H121.823V14.3307L120.692 15.4109M131.054 3.52845H138.59M120.692 15.4109L119.562 14.3307V4.80157H111.273L110.331 3.52845M120.692 15.4109V24.0232M110.331 3.52845H70.7949" stroke="url(#paint14_radial_1_4063)" stroke-width="0.0794116"/>
</g>
<g filter="url(#filter3_bi_1_4063)">
<path d="M120.692 44.5709V32.6884L121.823 33.7687V43.2978H130.112L131.054 44.5709H120.692Z" fill="url(#paint15_radial_1_4063)"/>
<path d="M120.692 44.5709V56.4534L121.823 55.3732V45.844H130.112L131.054 44.5709H120.692Z" fill="url(#paint16_radial_1_4063)"/>
<path d="M120.692 44.5709V32.6884L119.562 33.7687V43.2978H111.273L110.331 44.5709H120.692Z" fill="url(#paint17_radial_1_4063)"/>
<path d="M120.692 44.5709V56.4534L119.562 55.3732V45.844H111.273L110.331 44.5709H120.692Z" fill="url(#paint18_radial_1_4063)"/>
<path d="M120.692 44.5709V32.6884M120.692 44.5709H131.054M120.692 44.5709V56.4534M120.692 44.5709H110.331M120.692 32.6884L121.823 33.7687V43.2978H130.112L131.054 44.5709M120.692 32.6884L119.562 33.7687V43.2978H111.273L110.331 44.5709M120.692 32.6884V24.0762M131.054 44.5709L130.112 45.844H121.823V55.3732L120.692 56.4534M131.054 44.5709H138.59M120.692 56.4534L119.562 55.3732V45.844H111.273L110.331 44.5709M120.692 56.4534V65.0657M110.331 44.5709H70.7949" stroke="url(#paint19_radial_1_4063)" stroke-width="0.0794116"/>
</g>
</g>
<defs>
<filter id="filter0_bi_1_4063" x="-7.54117" y="-19.5075" width="80.8773" height="46.0721" filterUnits="userSpaceOnUse" color-interpolation-filters="sRGB">
<feFlood flood-opacity="0" result="BackgroundImageFix"/>
<feGaussianBlur in="BackgroundImageFix" stdDeviation="1.27058"/>
<feComposite in2="SourceAlpha" operator="in" result="effect1_backgroundBlur_1_4063"/>
<feBlend mode="normal" in="SourceGraphic" in2="effect1_backgroundBlur_1_4063" result="shape"/>
<feColorMatrix in="SourceAlpha" type="matrix" values="0 0 0 0 0 0 0 0 0 0 0 0 0 0 0 0 0 0 127 0" result="hardAlpha"/>
<feOffset dx="1.27058" dy="0.635292"/>
<feGaussianBlur stdDeviation="1.27058"/>
<feComposite in2="hardAlpha" operator="arithmetic" k2="-1" k3="1"/>
<feColorMatrix type="matrix" values="0 0 0 0 0 0 0 0 0 0 0 0 0 0 0 0 0 0 0.2 0"/>
<feBlend mode="normal" in2="shape" result="effect2_innerShadow_1_4063"/>
</filter>
<filter id="filter1_bi_1_4063" x="-7.54117" y="21.535" width="80.8773" height="46.0721" filterUnits="userSpaceOnUse" color-interpolation-filters="sRGB">
<feFlood flood-opacity="0" result="BackgroundImageFix"/>
<feGaussianBlur in="BackgroundImageFix" stdDeviation="1.27058"/>
<feComposite in2="SourceAlpha" operator="in" result="effect1_backgroundBlur_1_4063"/>
<feBlend mode="normal" in="SourceGraphic" in2="effect1_backgroundBlur_1_4063" result="shape"/>
<feColorMatrix in="SourceAlpha" type="matrix" values="0 0 0 0 0 0 0 0 0 0 0 0 0 0 0 0 0 0 127 0" result="hardAlpha"/>
<feOffset dx="1.27058" dy="0.635292"/>
<feGaussianBlur stdDeviation="1.27058"/>
<feComposite in2="hardAlpha" operator="arithmetic" k2="-1" k3="1"/>
<feColorMatrix type="matrix" values="0 0 0 0 0 0 0 0 0 0 0 0 0 0 0 0 0 0 0.2 0"/>
<feBlend mode="normal" in2="shape" result="effect2_innerShadow_1_4063"/>
</filter>
<filter id="filter2_bi_1_4063" x="68.2538" y="-19.5075" width="72.8773" height="46.0721" filterUnits="userSpaceOnUse" color-interpolation-filters="sRGB">
<feFlood flood-opacity="0" result="BackgroundImageFix"/>
<feGaussianBlur in="BackgroundImageFix" stdDeviation="1.27058"/>
<feComposite in2="SourceAlpha" operator="in" result="effect1_backgroundBlur_1_4063"/>
<feBlend mode="normal" in="SourceGraphic" in2="effect1_backgroundBlur_1_4063" result="shape"/>
<feColorMatrix in="SourceAlpha" type="matrix" values="0 0 0 0 0 0 0 0 0 0 0 0 0 0 0 0 0 0 127 0" result="hardAlpha"/>
<feOffset dx="1.27058" dy="0.635292"/>
<feGaussianBlur stdDeviation="1.27058"/>
<feComposite in2="hardAlpha" operator="arithmetic" k2="-1" k3="1"/>
<feColorMatrix type="matrix" values="0 0 0 0 0 0 0 0 0 0 0 0 0 0 0 0 0 0 0.2 0"/>
<feBlend mode="normal" in2="shape" result="effect2_innerShadow_1_4063"/>
</filter>
<filter id="filter3_bi_1_4063" x="68.2538" y="21.535" width="72.8773" height="46.0721" filterUnits="userSpaceOnUse" color-interpolation-filters="sRGB">
<feFlood flood-opacity="0" result="BackgroundImageFix"/>
<feGaussianBlur in="BackgroundImageFix" stdDeviation="1.27058"/>
<feComposite in2="SourceAlpha" operator="in" result="effect1_backgroundBlur_1_4063"/>
<feBlend mode="normal" in="SourceGraphic" in2="effect1_backgroundBlur_1_4063" result="shape"/>
<feColorMatrix in="SourceAlpha" type="matrix" values="0 0 0 0 0 0 0 0 0 0 0 0 0 0 0 0 0 0 127 0" result="hardAlpha"/>
<feOffset dx="1.27058" dy="0.635292"/>
<feGaussianBlur stdDeviation="1.27058"/>
<feComposite in2="hardAlpha" operator="arithmetic" k2="-1" k3="1"/>
<feColorMatrix type="matrix" values="0 0 0 0 0 0 0 0 0 0 0 0 0 0 0 0 0 0 0.2 0"/>
<feBlend mode="normal" in2="shape" result="effect2_innerShadow_1_4063"/>
</filter>
<radialGradient id="paint0_radial_1_4063" cx="0" cy="0" r="1" gradientUnits="userSpaceOnUse" gradientTransform="translate(12.8974 3.48784) rotate(180) scale(10.3616 11.8825)">
<stop stop-color="white"/>
<stop offset="1" stop-color="white" stop-opacity="0"/>
</radialGradient>
<radialGradient id="paint1_radial_1_4063" cx="0" cy="0" r="1" gradientUnits="userSpaceOnUse" gradientTransform="translate(12.8974 3.48784) rotate(180) scale(10.3616 11.8825)">
<stop stop-color="white"/>
<stop offset="1" stop-color="white" stop-opacity="0"/>
</radialGradient>
<radialGradient id="paint2_radial_1_4063" cx="0" cy="0" r="1" gradientUnits="userSpaceOnUse" gradientTransform="translate(12.8974 3.48784) rotate(180) scale(10.3616 11.8825)">
<stop stop-color="white"/>
<stop offset="1" stop-color="white" stop-opacity="0"/>
</radialGradient>
<radialGradient id="paint3_radial_1_4063" cx="0" cy="0" r="1" gradientUnits="userSpaceOnUse" gradientTransform="translate(12.8974 3.48784) rotate(180) scale(10.3616 11.8825)">
<stop stop-color="white"/>
<stop offset="1" stop-color="white" stop-opacity="0"/>
</radialGradient>
<radialGradient id="paint4_radial_1_4063" cx="0" cy="0" r="1" gradientUnits="userSpaceOnUse" gradientTransform="translate(13.1918 3.58876) rotate(90.1685) scale(20.0169 19.8941)">
<stop offset="0.526129" stop-color="white" stop-opacity="0"/>
<stop offset="1" stop-color="white"/>
</radialGradient>
<radialGradient id="paint5_radial_1_4063" cx="0" cy="0" r="1" gradientUnits="userSpaceOnUse" gradientTransform="translate(12.8974 44.5303) rotate(180) scale(10.3616 11.8825)">
<stop stop-color="white"/>
<stop offset="1" stop-color="white" stop-opacity="0"/>
</radialGradient>
<radialGradient id="paint6_radial_1_4063" cx="0" cy="0" r="1" gradientUnits="userSpaceOnUse" gradientTransform="translate(12.8974 44.5303) rotate(180) scale(10.3616 11.8825)">
<stop stop-color="white"/>
<stop offset="1" stop-color="white" stop-opacity="0"/>
</radialGradient>
<radialGradient id="paint7_radial_1_4063" cx="0" cy="0" r="1" gradientUnits="userSpaceOnUse" gradientTransform="translate(12.8974 44.5303) rotate(180) scale(10.3616 11.8825)">
<stop stop-color="white"/>
<stop offset="1" stop-color="white" stop-opacity="0"/>
</radialGradient>
<radialGradient id="paint8_radial_1_4063" cx="0" cy="0" r="1" gradientUnits="userSpaceOnUse" gradientTransform="translate(12.8974 44.5303) rotate(180) scale(10.3616 11.8825)">
<stop stop-color="white"/>
<stop offset="1" stop-color="white" stop-opacity="0"/>
</radialGradient>
<radialGradient id="paint9_radial_1_4063" cx="0" cy="0" r="1" gradientUnits="userSpaceOnUse" gradientTransform="translate(13.1918 44.6312) rotate(90.1685) scale(20.0169 19.8941)">
<stop offset="0.526129" stop-color="white" stop-opacity="0"/>
<stop offset="1" stop-color="white"/>
</radialGradient>
<radialGradient id="paint10_radial_1_4063" cx="0" cy="0" r="1" gradientUnits="userSpaceOnUse" gradientTransform="translate(120.692 3.48784) rotate(180) scale(10.3616 11.8825)">
<stop stop-color="white"/>
<stop offset="1" stop-color="white" stop-opacity="0"/>
</radialGradient>
<radialGradient id="paint11_radial_1_4063" cx="0" cy="0" r="1" gradientUnits="userSpaceOnUse" gradientTransform="translate(120.692 3.48784) rotate(180) scale(10.3616 11.8825)">
<stop stop-color="white"/>
<stop offset="1" stop-color="white" stop-opacity="0"/>
</radialGradient>
<radialGradient id="paint12_radial_1_4063" cx="0" cy="0" r="1" gradientUnits="userSpaceOnUse" gradientTransform="translate(120.692 3.48784) rotate(180) scale(10.3616 11.8825)">
<stop stop-color="white"/>
<stop offset="1" stop-color="white" stop-opacity="0"/>
</radialGradient>
<radialGradient id="paint13_radial_1_4063" cx="0" cy="0" r="1" gradientUnits="userSpaceOnUse" gradientTransform="translate(120.692 3.48784) rotate(180) scale(10.3616 11.8825)">
<stop stop-color="white"/>
<stop offset="1" stop-color="white" stop-opacity="0"/>
</radialGradient>
<radialGradient id="paint14_radial_1_4063" cx="0" cy="0" r="1" gradientUnits="userSpaceOnUse" gradientTransform="translate(120.987 3.58876) rotate(90.1685) scale(20.0169 19.8941)">
<stop offset="0.526129" stop-color="white" stop-opacity="0"/>
<stop offset="1" stop-color="white"/>
</radialGradient>
<radialGradient id="paint15_radial_1_4063" cx="0" cy="0" r="1" gradientUnits="userSpaceOnUse" gradientTransform="translate(120.692 44.5303) rotate(180) scale(10.3616 11.8825)">
<stop stop-color="white"/>
<stop offset="1" stop-color="white" stop-opacity="0"/>
</radialGradient>
<radialGradient id="paint16_radial_1_4063" cx="0" cy="0" r="1" gradientUnits="userSpaceOnUse" gradientTransform="translate(120.692 44.5303) rotate(180) scale(10.3616 11.8825)">
<stop stop-color="white"/>
<stop offset="1" stop-color="white" stop-opacity="0"/>
</radialGradient>
<radialGradient id="paint17_radial_1_4063" cx="0" cy="0" r="1" gradientUnits="userSpaceOnUse" gradientTransform="translate(120.692 44.5303) rotate(180) scale(10.3616 11.8825)">
<stop stop-color="white"/>
<stop offset="1" stop-color="white" stop-opacity="0"/>
</radialGradient>
<radialGradient id="paint18_radial_1_4063" cx="0" cy="0" r="1" gradientUnits="userSpaceOnUse" gradientTransform="translate(120.692 44.5303) rotate(180) scale(10.3616 11.8825)">
<stop stop-color="white"/>
<stop offset="1" stop-color="white" stop-opacity="0"/>
</radialGradient>
<radialGradient id="paint19_radial_1_4063" cx="0" cy="0" r="1" gradientUnits="userSpaceOnUse" gradientTransform="translate(120.987 44.6312) rotate(90.1685) scale(20.0169 19.8941)">
<stop offset="0.526129" stop-color="white" stop-opacity="0"/>
<stop offset="1" stop-color="white"/>
</radialGradient>
</defs>
</svg>
