<svg width="48" height="49" viewBox="0 0 48 49" fill="none" xmlns="http://www.w3.org/2000/svg">
<g filter="url(#filter0_b_15_996)">
<rect y="0.176514" width="48" height="48" rx="24" fill="#161616" fill-opacity="0.8"/>
<path d="M18.7828 19.0632C18.444 19.1694 18.2554 19.5301 18.3616 19.8689C18.4678 20.2077 18.8285 20.3962 19.1673 20.29L18.7828 19.0632ZM24 18.9266L23.9953 19.5695L24.0048 19.5695L24 18.9266ZM28.8328 20.29C29.1716 20.3962 29.5323 20.2077 29.6385 19.8689C29.7446 19.5301 29.5561 19.1694 29.2173 19.0632L28.8328 20.29ZM29.2173 29.29C29.5561 29.1838 29.7446 28.8231 29.6385 28.4843C29.5323 28.1455 29.1716 27.957 28.8328 28.0631L29.2173 29.29ZM24 29.4266L24.0048 28.7837L23.9953 28.7837L24 29.4266ZM19.1673 28.0631C18.8285 27.957 18.4678 28.1455 18.3616 28.4843C18.2554 28.8231 18.444 29.1838 18.7828 29.29L19.1673 28.0631ZM26.5309 29.2483L27.105 28.9589C26.9802 28.7113 26.7107 28.5717 26.4365 28.6124L26.5309 29.2483ZM27.6653 31.4983L28.2458 31.2221C28.2437 31.2177 28.2416 31.2133 28.2393 31.2089L27.6653 31.4983ZM28.5091 31.892L28.3561 31.2676L28.3478 31.2697L28.5091 31.892ZM34.2372 29.0983L34.6592 29.5833L34.6625 29.5804L34.2372 29.0983ZM34.4622 28.3108L33.8464 28.4952L33.8464 28.4954L34.4622 28.3108ZM31.2841 17.6983L30.6657 17.8744L30.6682 17.8827L31.2841 17.6983ZM30.8434 17.2202L30.5994 17.8149C30.6054 17.8174 30.6115 17.8198 30.6176 17.822L30.8434 17.2202ZM28.0684 16.3577L27.9309 16.9856L27.9323 16.9859L28.0684 16.3577ZM27.1872 16.8545L26.5787 16.6472L26.5768 16.6528L27.1872 16.8545ZM25.8362 18.8934C25.7248 19.2305 25.9077 19.5941 26.2448 19.7055C26.5819 19.817 26.9455 19.634 27.0569 19.2969L25.8362 18.8934ZM21.4681 29.2483L21.5626 28.6124C21.2884 28.5717 21.0189 28.7113 20.8941 28.9589L21.4681 29.2483ZM20.3337 31.4983L19.7597 31.2089C19.7575 31.2133 19.7553 31.2177 19.7532 31.2221L20.3337 31.4983ZM19.49 31.892L19.6512 31.2697L19.6429 31.2676L19.49 31.892ZM13.7619 29.0983L13.3366 29.5804L13.3399 29.5833L13.7619 29.0983ZM13.5369 28.3108L14.1526 28.4954L14.1527 28.4952L13.5369 28.3108ZM16.715 17.6983L17.3309 17.8827L17.3333 17.8744L16.715 17.6983ZM17.1556 17.2202L17.3815 17.822C17.3876 17.8198 17.3936 17.8174 17.3996 17.8149L17.1556 17.2202ZM19.9306 16.3577L20.0667 16.986L20.0681 16.9856L19.9306 16.3577ZM20.8119 16.8545L21.4223 16.6528L21.4204 16.6472L20.8119 16.8545ZM20.9421 19.297C21.0536 19.6341 21.4172 19.817 21.7543 19.7055C22.0914 19.5941 22.2743 19.2305 22.1629 18.8934L20.9421 19.297ZM21.482 25.6766C21.482 25.9429 21.2661 26.1587 20.9999 26.1587V27.4444C21.9762 27.4444 22.7677 26.6529 22.7677 25.6766H21.482ZM20.9999 26.1587C20.7336 26.1587 20.5177 25.9429 20.5177 25.6766H19.232C19.232 26.6529 20.0235 27.4444 20.9999 27.4444V26.1587ZM20.5177 25.6766C20.5177 25.4103 20.7336 25.1944 20.9999 25.1944V23.9087C20.0235 23.9087 19.232 24.7002 19.232 25.6766H20.5177ZM20.9999 25.1944C21.2661 25.1944 21.482 25.4103 21.482 25.6766H22.7677C22.7677 24.7002 21.9762 23.9087 20.9999 23.9087V25.1944ZM27.482 25.6766C27.482 25.9429 27.2661 26.1587 26.9999 26.1587V27.4444C27.9762 27.4444 28.7677 26.6529 28.7677 25.6766H27.482ZM26.9999 26.1587C26.7336 26.1587 26.5177 25.9429 26.5177 25.6766H25.232C25.232 26.6529 26.0235 27.4444 26.9999 27.4444V26.1587ZM26.5177 25.6766C26.5177 25.4103 26.7336 25.1944 26.9999 25.1944V23.9087C26.0235 23.9087 25.232 24.7002 25.232 25.6766H26.5177ZM26.9999 25.1944C27.2661 25.1944 27.482 25.4103 27.482 25.6766H28.7677C28.7677 24.7002 27.9762 23.9087 26.9999 23.9087V25.1944ZM28.8328 28.0631C27.2707 28.5527 25.6418 28.7958 24.0048 28.7837L23.9953 30.0694C25.7659 30.0825 27.5277 29.8196 29.2173 29.29L28.8328 28.0631ZM23.9953 28.7837C22.3583 28.7958 20.7294 28.5527 19.1673 28.0631L18.7828 29.29C20.4724 29.8196 22.2342 30.0825 24.0048 30.0694L23.9953 28.7837ZM25.9569 29.5377L27.0913 31.7877L28.2393 31.2089L27.105 28.9589L25.9569 29.5377ZM27.0848 31.7745C27.222 32.0628 27.4552 32.2943 27.7446 32.4294L28.2883 31.2643C28.2697 31.2556 28.2547 31.2407 28.2458 31.2221L27.0848 31.7745ZM27.7446 32.4294C28.0339 32.5644 28.3612 32.5944 28.6703 32.5144L28.3478 31.2697C28.3279 31.2749 28.3069 31.273 28.2883 31.2643L27.7446 32.4294ZM28.662 32.5165C31.037 31.9348 33.1231 30.9198 34.6592 29.5833L33.8152 28.6133C32.4638 29.7892 30.5748 30.7243 28.3562 31.2676L28.662 32.5165ZM34.6625 29.5804C34.8635 29.403 35.0094 29.1718 35.0831 28.9141L33.8468 28.5609C33.8407 28.5823 33.8286 28.6015 33.8119 28.6162L34.6625 29.5804ZM35.0831 28.9141C35.1567 28.6564 35.1549 28.3829 35.078 28.1262L33.8464 28.4954C33.8528 28.5167 33.853 28.5395 33.8468 28.5609L35.0831 28.9141ZM35.078 28.1264L31.8999 17.5139L30.6682 17.8827L33.8464 28.4952L35.078 28.1264ZM31.9023 17.5222C31.8439 17.3169 31.738 17.1282 31.5934 16.9712L30.6479 17.8425C30.6563 17.8516 30.6624 17.8625 30.6658 17.8744L31.9023 17.5222ZM31.5934 16.9712C31.4487 16.8142 31.2692 16.6933 31.0693 16.6183L30.6176 17.822C30.6291 17.8264 30.6395 17.8334 30.6479 17.8425L31.5934 16.9712ZM31.0874 16.6254C30.1546 16.2427 29.19 15.9429 28.2046 15.7294L27.9323 16.9859C28.844 17.1835 29.7364 17.4609 30.5994 17.8149L31.0874 16.6254ZM28.206 15.7297C27.8694 15.656 27.5174 15.7088 27.2173 15.878L27.8488 16.998C27.8737 16.9839 27.9029 16.9795 27.9309 16.9856L28.206 15.7297ZM27.2173 15.878C26.9171 16.0472 26.6898 16.3211 26.5787 16.6472L27.7957 17.0619C27.8049 17.0348 27.8238 17.012 27.8488 16.998L27.2173 15.878ZM20.8941 28.9589L19.7597 31.2089L20.9078 31.7877L22.0421 29.5377L20.8941 28.9589ZM19.7532 31.2221C19.7444 31.2407 19.7294 31.2556 19.7108 31.2643L20.2545 32.4294C20.5438 32.2943 20.7771 32.0628 20.9143 31.7745L19.7532 31.2221ZM19.7108 31.2643C19.6922 31.273 19.6711 31.2749 19.6512 31.2697L19.3288 32.5144C19.6378 32.5944 19.9652 32.5644 20.2545 32.4294L19.7108 31.2643ZM19.6429 31.2676C17.4242 30.7243 15.5353 29.7892 14.1839 28.6133L13.3399 29.5833C14.876 30.9198 16.962 31.9348 19.3371 32.5165L19.6429 31.2676ZM14.1872 28.6162C14.1705 28.6015 14.1583 28.5823 14.1522 28.5609L12.916 28.9141C12.9896 29.1718 13.1356 29.403 13.3366 29.5804L14.1872 28.6162ZM14.1522 28.5609C14.1461 28.5395 14.1463 28.5167 14.1526 28.4954L12.9211 28.1262C12.8441 28.3829 12.8423 28.6564 12.916 28.9141L14.1522 28.5609ZM14.1527 28.4952L17.3308 17.8827L16.0992 17.5139L12.921 28.1264L14.1527 28.4952ZM17.3333 17.8744C17.3367 17.8625 17.3428 17.8516 17.3512 17.8425L16.4057 16.9712C16.261 17.1282 16.1552 17.3169 16.0967 17.5222L17.3333 17.8744ZM17.3512 17.8425C17.3595 17.8334 17.3699 17.8264 17.3815 17.822L16.9297 16.6183C16.7299 16.6933 16.5504 16.8142 16.4057 16.9712L17.3512 17.8425ZM17.3996 17.8149C18.2626 17.4609 19.1551 17.1835 20.0667 16.9859L19.7945 15.7294C18.8091 15.9429 17.8444 16.2427 16.9116 16.6254L17.3996 17.8149ZM20.0681 16.9856C20.0961 16.9795 20.1254 16.9839 20.1503 16.998L20.7818 15.878C20.4816 15.7088 20.1297 15.656 19.7931 15.7297L20.0681 16.9856ZM20.1503 16.998C20.1752 17.012 20.1941 17.0348 20.2034 17.0619L21.4204 16.6472C21.3092 16.3211 21.0819 16.0472 20.7818 15.878L20.1503 16.998ZM21.6427 19.7285C22.4207 19.617 23.207 19.5636 23.9953 19.5695L24.0048 18.2838C23.1522 18.2775 22.3017 18.3352 21.4603 18.4558L21.6427 19.7285ZM24.0048 19.5695C24.7927 19.5636 25.5788 19.6169 26.3564 19.7284L26.5388 18.4557C25.6977 18.3351 24.8475 18.2775 23.9953 18.2838L24.0048 19.5695ZM27.058 19.2938L27.7976 17.0563L26.5768 16.6528L25.8372 18.8903L27.058 19.2938ZM26.4365 28.6124C25.6323 28.7319 24.8195 28.7898 24.0048 28.7837L23.9953 30.0694C24.8772 30.0759 25.7563 30.0133 26.6254 29.8842L26.4365 28.6124ZM23.9953 28.7837C23.1802 28.7898 22.367 28.732 21.5626 28.6124L21.3736 29.8842C22.2431 30.0134 23.1226 30.0759 24.0048 30.0694L23.9953 28.7837ZM20.2015 17.0563L20.9411 19.2939L22.1619 18.8904L21.4222 16.6528L20.2015 17.0563ZM25.8372 18.8903L25.8362 18.8934L27.0569 19.2969L27.058 19.2938L25.8372 18.8903ZM26.3564 19.7284C27.1944 19.8485 28.0225 20.0361 28.8328 20.29L29.2173 19.0632C28.3409 18.7885 27.4452 18.5856 26.5388 18.4557L26.3564 19.7284ZM20.9411 19.294L20.9421 19.297L22.1629 18.8934L22.1619 18.8904L20.9411 19.294ZM19.1673 20.29C19.9772 20.0362 20.8051 19.8486 21.6427 19.7285L21.4603 18.4558C20.5542 18.5857 19.6588 18.7886 18.7828 19.0632L19.1673 20.29Z" fill="url(#paint0_radial_15_996)"/>
<path d="M18.7828 19.0632C18.444 19.1694 18.2554 19.5301 18.3616 19.8689C18.4678 20.2077 18.8285 20.3962 19.1673 20.29L18.7828 19.0632ZM24 18.9266L23.9953 19.5695L24.0048 19.5695L24 18.9266ZM28.8328 20.29C29.1716 20.3962 29.5323 20.2077 29.6385 19.8689C29.7446 19.5301 29.5561 19.1694 29.2173 19.0632L28.8328 20.29ZM29.2173 29.29C29.5561 29.1838 29.7446 28.8231 29.6385 28.4843C29.5323 28.1455 29.1716 27.957 28.8328 28.0631L29.2173 29.29ZM24 29.4266L24.0048 28.7837L23.9953 28.7837L24 29.4266ZM19.1673 28.0631C18.8285 27.957 18.4678 28.1455 18.3616 28.4843C18.2554 28.8231 18.444 29.1838 18.7828 29.29L19.1673 28.0631ZM26.5309 29.2483L27.105 28.9589C26.9802 28.7113 26.7107 28.5717 26.4365 28.6124L26.5309 29.2483ZM27.6653 31.4983L28.2458 31.2221C28.2437 31.2177 28.2416 31.2133 28.2393 31.2089L27.6653 31.4983ZM28.5091 31.892L28.3561 31.2676L28.3478 31.2697L28.5091 31.892ZM34.2372 29.0983L34.6592 29.5833L34.6625 29.5804L34.2372 29.0983ZM34.4622 28.3108L33.8464 28.4952L33.8464 28.4954L34.4622 28.3108ZM31.2841 17.6983L30.6657 17.8744L30.6682 17.8827L31.2841 17.6983ZM30.8434 17.2202L30.5994 17.8149C30.6054 17.8174 30.6115 17.8198 30.6176 17.822L30.8434 17.2202ZM28.0684 16.3577L27.9309 16.9856L27.9323 16.9859L28.0684 16.3577ZM27.1872 16.8545L26.5787 16.6472L26.5768 16.6528L27.1872 16.8545ZM25.8362 18.8934C25.7248 19.2305 25.9077 19.5941 26.2448 19.7055C26.5819 19.817 26.9455 19.634 27.0569 19.2969L25.8362 18.8934ZM21.4681 29.2483L21.5626 28.6124C21.2884 28.5717 21.0189 28.7113 20.8941 28.9589L21.4681 29.2483ZM20.3337 31.4983L19.7597 31.2089C19.7575 31.2133 19.7553 31.2177 19.7532 31.2221L20.3337 31.4983ZM19.49 31.892L19.6512 31.2697L19.6429 31.2676L19.49 31.892ZM13.7619 29.0983L13.3366 29.5804L13.3399 29.5833L13.7619 29.0983ZM13.5369 28.3108L14.1526 28.4954L14.1527 28.4952L13.5369 28.3108ZM16.715 17.6983L17.3309 17.8827L17.3333 17.8744L16.715 17.6983ZM17.1556 17.2202L17.3815 17.822C17.3876 17.8198 17.3936 17.8174 17.3996 17.8149L17.1556 17.2202ZM19.9306 16.3577L20.0667 16.986L20.0681 16.9856L19.9306 16.3577ZM20.8119 16.8545L21.4223 16.6528L21.4204 16.6472L20.8119 16.8545ZM20.9421 19.297C21.0536 19.6341 21.4172 19.817 21.7543 19.7055C22.0914 19.5941 22.2743 19.2305 22.1629 18.8934L20.9421 19.297ZM21.482 25.6766C21.482 25.9429 21.2661 26.1587 20.9999 26.1587V27.4444C21.9762 27.4444 22.7677 26.6529 22.7677 25.6766H21.482ZM20.9999 26.1587C20.7336 26.1587 20.5177 25.9429 20.5177 25.6766H19.232C19.232 26.6529 20.0235 27.4444 20.9999 27.4444V26.1587ZM20.5177 25.6766C20.5177 25.4103 20.7336 25.1944 20.9999 25.1944V23.9087C20.0235 23.9087 19.232 24.7002 19.232 25.6766H20.5177ZM20.9999 25.1944C21.2661 25.1944 21.482 25.4103 21.482 25.6766H22.7677C22.7677 24.7002 21.9762 23.9087 20.9999 23.9087V25.1944ZM27.482 25.6766C27.482 25.9429 27.2661 26.1587 26.9999 26.1587V27.4444C27.9762 27.4444 28.7677 26.6529 28.7677 25.6766H27.482ZM26.9999 26.1587C26.7336 26.1587 26.5177 25.9429 26.5177 25.6766H25.232C25.232 26.6529 26.0235 27.4444 26.9999 27.4444V26.1587ZM26.5177 25.6766C26.5177 25.4103 26.7336 25.1944 26.9999 25.1944V23.9087C26.0235 23.9087 25.232 24.7002 25.232 25.6766H26.5177ZM26.9999 25.1944C27.2661 25.1944 27.482 25.4103 27.482 25.6766H28.7677C28.7677 24.7002 27.9762 23.9087 26.9999 23.9087V25.1944ZM28.8328 28.0631C27.2707 28.5527 25.6418 28.7958 24.0048 28.7837L23.9953 30.0694C25.7659 30.0825 27.5277 29.8196 29.2173 29.29L28.8328 28.0631ZM23.9953 28.7837C22.3583 28.7958 20.7294 28.5527 19.1673 28.0631L18.7828 29.29C20.4724 29.8196 22.2342 30.0825 24.0048 30.0694L23.9953 28.7837ZM25.9569 29.5377L27.0913 31.7877L28.2393 31.2089L27.105 28.9589L25.9569 29.5377ZM27.0848 31.7745C27.222 32.0628 27.4552 32.2943 27.7446 32.4294L28.2883 31.2643C28.2697 31.2556 28.2547 31.2407 28.2458 31.2221L27.0848 31.7745ZM27.7446 32.4294C28.0339 32.5644 28.3612 32.5944 28.6703 32.5144L28.3478 31.2697C28.3279 31.2749 28.3069 31.273 28.2883 31.2643L27.7446 32.4294ZM28.662 32.5165C31.037 31.9348 33.1231 30.9198 34.6592 29.5833L33.8152 28.6133C32.4638 29.7892 30.5748 30.7243 28.3562 31.2676L28.662 32.5165ZM34.6625 29.5804C34.8635 29.403 35.0094 29.1718 35.0831 28.9141L33.8468 28.5609C33.8407 28.5823 33.8286 28.6015 33.8119 28.6162L34.6625 29.5804ZM35.0831 28.9141C35.1567 28.6564 35.1549 28.3829 35.078 28.1262L33.8464 28.4954C33.8528 28.5167 33.853 28.5395 33.8468 28.5609L35.0831 28.9141ZM35.078 28.1264L31.8999 17.5139L30.6682 17.8827L33.8464 28.4952L35.078 28.1264ZM31.9023 17.5222C31.8439 17.3169 31.738 17.1282 31.5934 16.9712L30.6479 17.8425C30.6563 17.8516 30.6624 17.8625 30.6658 17.8744L31.9023 17.5222ZM31.5934 16.9712C31.4487 16.8142 31.2692 16.6933 31.0693 16.6183L30.6176 17.822C30.6291 17.8264 30.6395 17.8334 30.6479 17.8425L31.5934 16.9712ZM31.0874 16.6254C30.1546 16.2427 29.19 15.9429 28.2046 15.7294L27.9323 16.9859C28.844 17.1835 29.7364 17.4609 30.5994 17.8149L31.0874 16.6254ZM28.206 15.7297C27.8694 15.656 27.5174 15.7088 27.2173 15.878L27.8488 16.998C27.8737 16.9839 27.9029 16.9795 27.9309 16.9856L28.206 15.7297ZM27.2173 15.878C26.9171 16.0472 26.6898 16.3211 26.5787 16.6472L27.7957 17.0619C27.8049 17.0348 27.8238 17.012 27.8488 16.998L27.2173 15.878ZM20.8941 28.9589L19.7597 31.2089L20.9078 31.7877L22.0421 29.5377L20.8941 28.9589ZM19.7532 31.2221C19.7444 31.2407 19.7294 31.2556 19.7108 31.2643L20.2545 32.4294C20.5438 32.2943 20.7771 32.0628 20.9143 31.7745L19.7532 31.2221ZM19.7108 31.2643C19.6922 31.273 19.6711 31.2749 19.6512 31.2697L19.3288 32.5144C19.6378 32.5944 19.9652 32.5644 20.2545 32.4294L19.7108 31.2643ZM19.6429 31.2676C17.4242 30.7243 15.5353 29.7892 14.1839 28.6133L13.3399 29.5833C14.876 30.9198 16.962 31.9348 19.3371 32.5165L19.6429 31.2676ZM14.1872 28.6162C14.1705 28.6015 14.1583 28.5823 14.1522 28.5609L12.916 28.9141C12.9896 29.1718 13.1356 29.403 13.3366 29.5804L14.1872 28.6162ZM14.1522 28.5609C14.1461 28.5395 14.1463 28.5167 14.1526 28.4954L12.9211 28.1262C12.8441 28.3829 12.8423 28.6564 12.916 28.9141L14.1522 28.5609ZM14.1527 28.4952L17.3308 17.8827L16.0992 17.5139L12.921 28.1264L14.1527 28.4952ZM17.3333 17.8744C17.3367 17.8625 17.3428 17.8516 17.3512 17.8425L16.4057 16.9712C16.261 17.1282 16.1552 17.3169 16.0967 17.5222L17.3333 17.8744ZM17.3512 17.8425C17.3595 17.8334 17.3699 17.8264 17.3815 17.822L16.9297 16.6183C16.7299 16.6933 16.5504 16.8142 16.4057 16.9712L17.3512 17.8425ZM17.3996 17.8149C18.2626 17.4609 19.1551 17.1835 20.0667 16.9859L19.7945 15.7294C18.8091 15.9429 17.8444 16.2427 16.9116 16.6254L17.3996 17.8149ZM20.0681 16.9856C20.0961 16.9795 20.1254 16.9839 20.1503 16.998L20.7818 15.878C20.4816 15.7088 20.1297 15.656 19.7931 15.7297L20.0681 16.9856ZM20.1503 16.998C20.1752 17.012 20.1941 17.0348 20.2034 17.0619L21.4204 16.6472C21.3092 16.3211 21.0819 16.0472 20.7818 15.878L20.1503 16.998ZM21.6427 19.7285C22.4207 19.617 23.207 19.5636 23.9953 19.5695L24.0048 18.2838C23.1522 18.2775 22.3017 18.3352 21.4603 18.4558L21.6427 19.7285ZM24.0048 19.5695C24.7927 19.5636 25.5788 19.6169 26.3564 19.7284L26.5388 18.4557C25.6977 18.3351 24.8475 18.2775 23.9953 18.2838L24.0048 19.5695ZM27.058 19.2938L27.7976 17.0563L26.5768 16.6528L25.8372 18.8903L27.058 19.2938ZM26.4365 28.6124C25.6323 28.7319 24.8195 28.7898 24.0048 28.7837L23.9953 30.0694C24.8772 30.0759 25.7563 30.0133 26.6254 29.8842L26.4365 28.6124ZM23.9953 28.7837C23.1802 28.7898 22.367 28.732 21.5626 28.6124L21.3736 29.8842C22.2431 30.0134 23.1226 30.0759 24.0048 30.0694L23.9953 28.7837ZM20.2015 17.0563L20.9411 19.2939L22.1619 18.8904L21.4222 16.6528L20.2015 17.0563ZM25.8372 18.8903L25.8362 18.8934L27.0569 19.2969L27.058 19.2938L25.8372 18.8903ZM26.3564 19.7284C27.1944 19.8485 28.0225 20.0361 28.8328 20.29L29.2173 19.0632C28.3409 18.7885 27.4452 18.5856 26.5388 18.4557L26.3564 19.7284ZM20.9411 19.294L20.9421 19.297L22.1629 18.8934L22.1619 18.8904L20.9411 19.294ZM19.1673 20.29C19.9772 20.0362 20.8051 19.8486 21.6427 19.7285L21.4603 18.4558C20.5542 18.5857 19.6588 18.7886 18.7828 19.0632L19.1673 20.29Z" fill="url(#paint1_linear_15_996)" fill-opacity="0.7" style="mix-blend-mode:overlay"/>
<rect x="0.5" y="0.676514" width="47" height="47" rx="23.5" stroke="white" stroke-opacity="0.08"/>
</g>
<defs>
<filter id="filter0_b_15_996" x="-32" y="-31.8235" width="112" height="112" filterUnits="userSpaceOnUse" color-interpolation-filters="sRGB">
<feFlood flood-opacity="0" result="BackgroundImageFix"/>
<feGaussianBlur in="BackgroundImageFix" stdDeviation="16"/>
<feComposite in2="SourceAlpha" operator="in" result="effect1_backgroundBlur_15_996"/>
<feBlend mode="normal" in="SourceGraphic" in2="effect1_backgroundBlur_15_996" result="shape"/>
</filter>
<radialGradient id="paint0_radial_15_996" cx="0" cy="0" r="1" gradientUnits="userSpaceOnUse" gradientTransform="translate(12.8418 10.8557) rotate(48.5923) scale(33.7557 33.4906)">
<stop stop-color="white" stop-opacity="0.8"/>
<stop offset="1" stop-color="white" stop-opacity="0.32"/>
</radialGradient>
<linearGradient id="paint1_linear_15_996" x1="13.5056" y1="16.3401" x2="34.7384" y2="16.682" gradientUnits="userSpaceOnUse">
<stop stop-color="#5227FF"/>
<stop offset="1" stop-color="#6100FF"/>
</linearGradient>
</defs>
</svg>
