<svg width="48" height="49" viewBox="0 0 48 49" fill="none" xmlns="http://www.w3.org/2000/svg">
    <g filter="url(#filter0_b_15_1007)">
        <rect y="0.176514" width="48" height="48" rx="24" fill="#161616" fill-opacity="0.8"/>
        <path d="M19.8748 34.6765C20.1707 34.6778 20.4638 34.6204 20.7374 34.5078C21.0109 34.3951 21.2594 34.2294 21.4686 34.0203C21.6778 33.8111 21.8435 33.5626 21.9561 33.289C22.0687 33.0155 22.1261 32.7223 22.1248 32.4265V27.9265M28.1248 34.6765C27.829 34.6778 27.5359 34.6204 27.2623 34.5078C26.9888 34.3951 26.7403 34.2294 26.5311 34.0203C26.3219 33.8111 26.1562 33.5626 26.0436 33.289C25.931 33.0155 25.8736 32.7223 25.8748 32.4265V27.9265M26.2498 27.9265H27.7498C28.0457 27.9253 28.3388 27.9826 28.6124 28.0953C28.8859 28.2079 29.1344 28.3736 29.3436 28.5828C29.5528 28.7919 29.7185 29.0405 29.8311 29.314C29.9437 29.5876 30.0011 29.8807 29.9998 30.1765V30.9265C29.9986 31.2223 30.056 31.5155 30.1686 31.789C30.2812 32.0626 30.4469 32.3111 30.6561 32.5203C30.8653 32.7294 31.1138 32.8951 31.3873 33.0078C31.6609 33.1204 31.954 33.1778 32.2498 33.1765M26.2498 27.9265H21.7498M26.2498 27.9265C27.4433 27.9265 28.5879 27.4524 29.4318 26.6085C30.2757 25.7646 30.7498 24.62 30.7498 23.4265V22.6765C30.7429 21.7634 30.4656 20.8728 29.953 20.1171C30.2144 19.4384 30.3206 18.7098 30.2638 17.9846C30.207 17.2595 29.9887 16.5563 29.6248 15.9265C28.8066 15.9268 28.0015 16.133 27.2839 16.5263C26.5663 16.9195 25.9592 17.487 25.5186 18.1765H22.4811C22.0405 17.487 21.4334 16.9195 20.7158 16.5263C19.9982 16.133 19.1931 15.9268 18.3748 15.9265C18.011 16.5563 17.7927 17.2595 17.7359 17.9846C17.6791 18.7098 17.7853 19.4384 18.0467 20.1171C17.5341 20.8728 17.2568 21.7634 17.2498 22.6765V23.4265C17.2498 24.62 17.724 25.7646 18.5679 26.6085C19.4118 27.4524 20.5564 27.9265 21.7498 27.9265M21.7498 27.9265H20.2498C19.954 27.9253 19.6609 27.9826 19.3873 28.0953C19.1138 28.2079 18.8653 28.3736 18.6561 28.5828C18.4469 28.7919 18.2812 29.0405 18.1686 29.314C18.056 29.5876 17.9986 29.8807 17.9998 30.1765V30.9265C18.0011 31.2223 17.9437 31.5155 17.8311 31.789C17.7185 32.0626 17.5528 32.3111 17.3436 32.5203C17.1344 32.7294 16.8859 32.8951 16.6124 33.0078C16.3388 33.1204 16.0457 33.1778 15.7498 33.1765"
              stroke="url(#paint0_radial_15_1007)" stroke-width="1.28571" stroke-linecap="round"
              stroke-linejoin="round"/>
        <path d="M19.8748 34.6765C20.1707 34.6778 20.4638 34.6204 20.7374 34.5078C21.0109 34.3951 21.2594 34.2294 21.4686 34.0203C21.6778 33.8111 21.8435 33.5626 21.9561 33.289C22.0687 33.0155 22.1261 32.7223 22.1248 32.4265V27.9265M28.1248 34.6765C27.829 34.6778 27.5359 34.6204 27.2623 34.5078C26.9888 34.3951 26.7403 34.2294 26.5311 34.0203C26.3219 33.8111 26.1562 33.5626 26.0436 33.289C25.931 33.0155 25.8736 32.7223 25.8748 32.4265V27.9265M26.2498 27.9265H27.7498C28.0457 27.9253 28.3388 27.9826 28.6124 28.0953C28.8859 28.2079 29.1344 28.3736 29.3436 28.5828C29.5528 28.7919 29.7185 29.0405 29.8311 29.314C29.9437 29.5876 30.0011 29.8807 29.9998 30.1765V30.9265C29.9986 31.2223 30.056 31.5155 30.1686 31.789C30.2812 32.0626 30.4469 32.3111 30.6561 32.5203C30.8653 32.7294 31.1138 32.8951 31.3873 33.0078C31.6609 33.1204 31.954 33.1778 32.2498 33.1765M26.2498 27.9265H21.7498M26.2498 27.9265C27.4433 27.9265 28.5879 27.4524 29.4318 26.6085C30.2757 25.7646 30.7498 24.62 30.7498 23.4265V22.6765C30.7429 21.7634 30.4656 20.8728 29.953 20.1171C30.2144 19.4384 30.3206 18.7098 30.2638 17.9846C30.207 17.2595 29.9887 16.5563 29.6248 15.9265C28.8066 15.9268 28.0015 16.133 27.2839 16.5263C26.5663 16.9195 25.9592 17.487 25.5186 18.1765H22.4811C22.0405 17.487 21.4334 16.9195 20.7158 16.5263C19.9982 16.133 19.1931 15.9268 18.3748 15.9265C18.011 16.5563 17.7927 17.2595 17.7359 17.9846C17.6791 18.7098 17.7853 19.4384 18.0467 20.1171C17.5341 20.8728 17.2568 21.7634 17.2498 22.6765V23.4265C17.2498 24.62 17.724 25.7646 18.5679 26.6085C19.4118 27.4524 20.5564 27.9265 21.7498 27.9265M21.7498 27.9265H20.2498C19.954 27.9253 19.6609 27.9826 19.3873 28.0953C19.1138 28.2079 18.8653 28.3736 18.6561 28.5828C18.4469 28.7919 18.2812 29.0405 18.1686 29.314C18.056 29.5876 17.9986 29.8807 17.9998 30.1765V30.9265C18.0011 31.2223 17.9437 31.5155 17.8311 31.789C17.7185 32.0626 17.5528 32.3111 17.3436 32.5203C17.1344 32.7294 16.8859 32.8951 16.6124 33.0078C16.3388 33.1204 16.0457 33.1778 15.7498 33.1765"
              stroke="url(#paint1_linear_15_1007)" stroke-opacity="0.7" stroke-width="1.28571" stroke-linecap="round"
              stroke-linejoin="round" style="mix-blend-mode:overlay"/>
        <rect x="0.5" y="0.676514" width="47" height="47" rx="23.5" stroke="white" stroke-opacity="0.08"/>
    </g>
    <defs>
        <filter id="filter0_b_15_1007" x="-32" y="-31.8235" width="112" height="112" filterUnits="userSpaceOnUse"
                color-interpolation-filters="sRGB">
            <feFlood flood-opacity="0" result="BackgroundImageFix"/>
            <feGaussianBlur in="BackgroundImageFix" stdDeviation="16"/>
            <feComposite in2="SourceAlpha" operator="in" result="effect1_backgroundBlur_15_1007"/>
            <feBlend mode="normal" in="SourceGraphic" in2="effect1_backgroundBlur_15_1007" result="shape"/>
        </filter>
        <radialGradient id="paint0_radial_15_1007" cx="0" cy="0" r="1" gradientUnits="userSpaceOnUse"
                        gradientTransform="translate(15.2286 9.32429) rotate(60.0639) scale(35.1702 30.419)">
            <stop stop-color="white" stop-opacity="0.8"/>
            <stop offset="1" stop-color="white" stop-opacity="0.32"/>
        </radialGradient>
        <linearGradient id="paint1_linear_15_1007" x1="15.7504" y1="15.9265" x2="32.4443" y2="16.102"
                        gradientUnits="userSpaceOnUse">
            <stop stop-color="#5227FF"/>
            <stop offset="1" stop-color="#6100FF"/>
        </linearGradient>
    </defs>
</svg>
