<svg width="294" height="104" viewBox="0 0 294 104" fill="none" xmlns="http://www.w3.org/2000/svg">
<path d="M63.1676 32.0023H57.1215V48.9781H36.6575V32.0023H30.6113V71.5349H36.6575V54.0941H57.1215V71.5349H63.1676V32.0023Z" fill="#E7EEEB"/>
<path d="M103.165 32.0023H95.9565L109.909 49.6757V71.5349H116.42V48.7455L103.165 32.0023Z" fill="#E7EEEB"/>
<path d="M229.902 32.0023L230.6 71.5349H236.181V44.3272L262.459 72H263.389V32.0023H257.808V59.6751L231.53 32.0023H229.902Z" fill="#E7EEEB"/>
<path fill-rule="evenodd" clip-rule="evenodd" d="M162.697 32.0023V71.5349H175.254C178.2 71.3799 184.789 70.5582 187.579 68.5118C191.067 65.9539 195.951 61.768 195.718 52.4662C195.486 43.1644 193.858 38.5136 187.579 34.7928C182.829 31.9781 178.745 31.9914 175.758 32.0012C175.587 32.0017 175.419 32.0023 175.254 32.0023H162.697ZM168.743 66.4189V36.8857C168.854 36.8857 169.036 36.8798 169.284 36.8718C170.592 36.8294 173.743 36.7272 178.045 37.1183C185.513 37.7972 189.905 42.0017 189.905 52.4662C189.905 62.9308 182.231 65.0237 178.045 65.9538C175.29 66.566 171.874 66.4857 169.843 66.438C169.405 66.4277 169.032 66.4189 168.743 66.4189Z" fill="#E7EEEB"/>
</svg>
