<svg width="64" height="64" viewBox="0 0 64 64" fill="none" xmlns="http://www.w3.org/2000/svg">
<g filter="url(#filter0_bi_31_2078)">
<path d="M12.2075 47.9628L12.2075 16.0374L16.0385 12.2063L16.0385 44.1317H44.132V47.9628L12.2075 47.9628Z" fill="url(#paint0_linear_31_2078)"/>
<path d="M16.0385 12.2063L47.9629 12.2063C47.9629 12.2063 50.2978 14.5412 51.7939 16.0374C39.3266 16.0374 19.8694 16.0374 19.8694 16.0374V44.1317L16.0385 44.1317L16.0385 12.2063Z" fill="url(#paint1_linear_31_2078)"/>
<path d="M16.0385 12.2063L47.9629 12.2063C47.9629 12.2063 50.2978 14.5412 51.7939 16.0374C39.3266 16.0374 19.8694 16.0374 19.8694 16.0374V44.1317L16.0385 44.1317L16.0385 12.2063Z" fill="black" fill-opacity="0.16"/>
<path d="M51.7939 16.0374C51.7939 28.505 51.7939 47.9628 51.7939 47.9628L47.9629 51.7938V19.8684L19.8694 19.8684L19.8694 16.0374C19.8694 16.0374 39.3266 16.0374 51.7939 16.0374Z" fill="url(#paint2_linear_31_2078)"/>
<path d="M47.9629 51.7938L16.0385 51.7939L12.2075 47.9628L44.132 47.9628L44.132 19.8684L47.9629 19.8684V51.7938Z" fill="url(#paint3_linear_31_2078)"/>
<path d="M47.9629 51.7938L16.0385 51.7939L12.2075 47.9628L44.132 47.9628L44.132 19.8684L47.9629 19.8684V51.7938Z" fill="black" fill-opacity="0.08"/>
</g>
<g opacity="0.3" filter="url(#filter1_i_31_2078)">
<path d="M12.2061 47.9645L12.2061 16.039L16.037 12.208L16.037 44.1334L44.1305 44.1334L44.1305 47.9645L12.2061 47.9645Z" stroke="url(#paint4_linear_31_2078)" stroke-opacity="0.32" stroke-width="0.0824743"/>
</g>
<g opacity="0.3" filter="url(#filter2_i_31_2078)">
<path d="M16.0381 12.2063L47.9625 12.2063L51.7935 16.0374L19.869 16.0374L19.869 44.1317L16.0381 44.1317L16.0381 12.2063Z" stroke="url(#paint5_linear_31_2078)" stroke-opacity="0.32" stroke-width="0.0824743"/>
</g>
<g opacity="0.3" filter="url(#filter3_i_31_2078)">
<path d="M51.7925 16.0367L51.7925 47.9622L47.9615 51.7932L47.9615 19.8678L19.868 19.8678L19.868 16.0367L51.7925 16.0367Z" stroke="url(#paint6_linear_31_2078)" stroke-opacity="0.32" stroke-width="0.0824743"/>
</g>
<g opacity="0.3" filter="url(#filter4_i_31_2078)">
<path d="M47.9624 51.7931L16.0379 51.7931L12.207 47.962L44.1315 47.962L44.1315 19.8676L47.9624 19.8676L47.9624 51.7931Z" stroke="url(#paint7_linear_31_2078)" stroke-opacity="0.32" stroke-width="0.0824743"/>
</g>
<defs>
<filter id="filter0_bi_31_2078" x="-31.4203" y="-31.4216" width="126.842" height="126.843" filterUnits="userSpaceOnUse" color-interpolation-filters="sRGB">
<feFlood flood-opacity="0" result="BackgroundImageFix"/>
<feGaussianBlur in="BackgroundImageFix" stdDeviation="21.8139"/>
<feComposite in2="SourceAlpha" operator="in" result="effect1_backgroundBlur_31_2078"/>
<feBlend mode="normal" in="SourceGraphic" in2="effect1_backgroundBlur_31_2078" result="shape"/>
<feColorMatrix in="SourceAlpha" type="matrix" values="0 0 0 0 0 0 0 0 0 0 0 0 0 0 0 0 0 0 127 0" result="hardAlpha"/>
<feOffset dx="0.329897" dy="0.329897"/>
<feGaussianBlur stdDeviation="0.659794"/>
<feComposite in2="hardAlpha" operator="arithmetic" k2="-1" k3="1"/>
<feColorMatrix type="matrix" values="0 0 0 0 0 0 0 0 0 0 0 0 0 0 0 0 0 0 0.2 0"/>
<feBlend mode="normal" in2="shape" result="effect2_innerShadow_31_2078"/>
</filter>
<filter id="filter1_i_31_2078" x="12.165" y="12.1084" width="53.8208" height="46.8043" filterUnits="userSpaceOnUse" color-interpolation-filters="sRGB">
<feFlood flood-opacity="0" result="BackgroundImageFix"/>
<feBlend mode="normal" in="SourceGraphic" in2="BackgroundImageFix" result="shape"/>
<feColorMatrix in="SourceAlpha" type="matrix" values="0 0 0 0 0 0 0 0 0 0 0 0 0 0 0 0 0 0 127 0" result="hardAlpha"/>
<feOffset dx="21.8139" dy="10.907"/>
<feGaussianBlur stdDeviation="21.8139"/>
<feComposite in2="hardAlpha" operator="arithmetic" k2="-1" k3="1"/>
<feColorMatrix type="matrix" values="0 0 0 0 0 0 0 0 0 0 0 0 0 0 0 0 0 0 0.2 0"/>
<feBlend mode="normal" in2="shape" result="effect1_innerShadow_31_2078"/>
</filter>
<filter id="filter2_i_31_2078" x="15.9971" y="12.165" width="57.7099" height="42.9149" filterUnits="userSpaceOnUse" color-interpolation-filters="sRGB">
<feFlood flood-opacity="0" result="BackgroundImageFix"/>
<feBlend mode="normal" in="SourceGraphic" in2="BackgroundImageFix" result="shape"/>
<feColorMatrix in="SourceAlpha" type="matrix" values="0 0 0 0 0 0 0 0 0 0 0 0 0 0 0 0 0 0 127 0" result="hardAlpha"/>
<feOffset dx="21.8139" dy="10.907"/>
<feGaussianBlur stdDeviation="21.8139"/>
<feComposite in2="hardAlpha" operator="arithmetic" k2="-1" k3="1"/>
<feColorMatrix type="matrix" values="0 0 0 0 0 0 0 0 0 0 0 0 0 0 0 0 0 0 0.2 0"/>
<feBlend mode="normal" in2="shape" result="effect1_innerShadow_31_2078"/>
</filter>
<filter id="filter3_i_31_2078" x="19.8267" y="15.9955" width="53.8208" height="46.8043" filterUnits="userSpaceOnUse" color-interpolation-filters="sRGB">
<feFlood flood-opacity="0" result="BackgroundImageFix"/>
<feBlend mode="normal" in="SourceGraphic" in2="BackgroundImageFix" result="shape"/>
<feColorMatrix in="SourceAlpha" type="matrix" values="0 0 0 0 0 0 0 0 0 0 0 0 0 0 0 0 0 0 127 0" result="hardAlpha"/>
<feOffset dx="21.8139" dy="10.907"/>
<feGaussianBlur stdDeviation="21.8139"/>
<feComposite in2="hardAlpha" operator="arithmetic" k2="-1" k3="1"/>
<feColorMatrix type="matrix" values="0 0 0 0 0 0 0 0 0 0 0 0 0 0 0 0 0 0 0.2 0"/>
<feBlend mode="normal" in2="shape" result="effect1_innerShadow_31_2078"/>
</filter>
<filter id="filter4_i_31_2078" x="12.1074" y="19.8264" width="57.7099" height="42.9149" filterUnits="userSpaceOnUse" color-interpolation-filters="sRGB">
<feFlood flood-opacity="0" result="BackgroundImageFix"/>
<feBlend mode="normal" in="SourceGraphic" in2="BackgroundImageFix" result="shape"/>
<feColorMatrix in="SourceAlpha" type="matrix" values="0 0 0 0 0 0 0 0 0 0 0 0 0 0 0 0 0 0 127 0" result="hardAlpha"/>
<feOffset dx="21.8139" dy="10.907"/>
<feGaussianBlur stdDeviation="21.8139"/>
<feComposite in2="hardAlpha" operator="arithmetic" k2="-1" k3="1"/>
<feColorMatrix type="matrix" values="0 0 0 0 0 0 0 0 0 0 0 0 0 0 0 0 0 0 0.2 0"/>
<feBlend mode="normal" in2="shape" result="effect1_innerShadow_31_2078"/>
</filter>
<linearGradient id="paint0_linear_31_2078" x1="12.2075" y1="32.0001" x2="44.0794" y2="32.0001" gradientUnits="userSpaceOnUse">
<stop stop-color="white"/>
<stop offset="1" stop-color="white" stop-opacity="0"/>
</linearGradient>
<linearGradient id="paint1_linear_31_2078" x1="32.0007" y1="12.2063" x2="32.0007" y2="44.8169" gradientUnits="userSpaceOnUse">
<stop stop-color="white"/>
<stop offset="1" stop-color="white" stop-opacity="0"/>
</linearGradient>
<linearGradient id="paint2_linear_31_2078" x1="18.598" y1="32.0001" x2="51.7939" y2="32.0001" gradientUnits="userSpaceOnUse">
<stop stop-color="white" stop-opacity="0"/>
<stop offset="1" stop-color="white"/>
</linearGradient>
<linearGradient id="paint3_linear_31_2078" x1="30.0852" y1="51.7939" x2="30.0852" y2="19.8684" gradientUnits="userSpaceOnUse">
<stop stop-color="white"/>
<stop offset="1" stop-color="white" stop-opacity="0"/>
</linearGradient>
<linearGradient id="paint4_linear_31_2078" x1="12.2061" y1="30.0862" x2="44.1305" y2="30.0862" gradientUnits="userSpaceOnUse">
<stop stop-color="white" stop-opacity="0"/>
<stop offset="1" stop-color="#FCFCFC"/>
</linearGradient>
<linearGradient id="paint5_linear_31_2078" x1="33.9158" y1="12.2063" x2="33.9158" y2="44.1317" gradientUnits="userSpaceOnUse">
<stop stop-color="white" stop-opacity="0"/>
<stop offset="1" stop-color="#FCFCFC"/>
</linearGradient>
<linearGradient id="paint6_linear_31_2078" x1="51.7925" y1="33.915" x2="19.868" y2="33.915" gradientUnits="userSpaceOnUse">
<stop stop-color="white" stop-opacity="0"/>
<stop offset="1" stop-color="#FCFCFC"/>
</linearGradient>
<linearGradient id="paint7_linear_31_2078" x1="30.0847" y1="51.7931" x2="30.0847" y2="19.8676" gradientUnits="userSpaceOnUse">
<stop stop-color="white" stop-opacity="0"/>
<stop offset="1" stop-color="#FCFCFC"/>
</linearGradient>
</defs>
</svg>
