<svg width="182" height="29" viewBox="0 0 182 29" fill="none" xmlns="http://www.w3.org/2000/svg">
    <g filter="url(#filter0_b_19_1925)">
        <path d="M37.8291 25.1958V4.45229H46.5033C47.7411 4.45229 48.8034 4.67504 49.6902 5.12054C50.5955 5.56603 51.2884 6.19716 51.7687 7.0139C52.2676 7.81209 52.517 8.76805 52.517 9.8818C52.517 10.9027 52.2491 11.8309 51.7133 12.6662C51.196 13.4829 50.4293 14.1233 49.4131 14.5874L49.3854 13.5572C50.2722 13.8913 51.002 14.3368 51.5747 14.8937C52.1659 15.432 52.6093 16.0631 52.905 16.787C53.2006 17.4924 53.3484 18.2442 53.3484 19.0424C53.3484 20.9543 52.7387 22.4578 51.5193 23.553C50.2999 24.6482 48.6372 25.1958 46.531 25.1958H37.8291ZM40.545 22.6899H46.6418C47.8427 22.6899 48.8034 22.365 49.524 21.7153C50.2445 21.0657 50.6048 20.1839 50.6048 19.0702C50.6048 17.9565 50.2445 17.0747 49.524 16.4251C48.8034 15.7568 47.8427 15.4227 46.6418 15.4227H40.545V22.6899ZM40.545 12.9724H46.4478C47.4455 12.9724 48.2492 12.6847 48.8589 12.1093C49.4685 11.5153 49.7734 10.7635 49.7734 9.85396C49.7734 8.90727 49.4685 8.18334 48.8589 7.68215C48.2492 7.18097 47.4455 6.93037 46.4478 6.93037H40.545V12.9724Z"
              fill="url(#paint0_radial_19_1925)"/>
        <path d="M55.6037 25.1958V6.71353L58.181 4.11816V25.1958H55.6037Z" fill="url(#paint1_radial_19_1925)"/>
        <path d="M68.1661 25.5299C66.7251 25.5299 65.4225 25.1958 64.2586 24.5276C63.0947 23.8407 62.1709 22.9033 61.4873 21.7153C60.8037 20.5274 60.4619 19.1816 60.4619 17.678C60.4619 16.1745 60.7945 14.838 61.4596 13.6685C62.1432 12.4991 63.0669 11.571 64.2309 10.8842C65.3948 10.1974 66.7066 9.85396 68.1661 9.85396C69.6072 9.85396 70.9097 10.1974 72.0737 10.8842C73.2376 11.5524 74.1521 12.4713 74.8172 13.6407C75.5008 14.8101 75.8426 16.1559 75.8426 17.678C75.8426 19.2001 75.4916 20.5552 74.7895 21.7432C74.0875 22.9126 73.1545 23.8407 71.9905 24.5276C70.845 25.1958 69.5703 25.5299 68.1661 25.5299ZM68.1661 23.024C69.0899 23.024 69.9213 22.792 70.6603 22.3279C71.4178 21.8638 72.009 21.2234 72.4339 20.4067C72.8773 19.59 73.099 18.6804 73.099 17.678C73.099 16.6571 72.8773 15.7568 72.4339 14.9772C72.009 14.179 71.4178 13.5479 70.6603 13.0838C69.9213 12.6012 69.0899 12.3599 68.1661 12.3599C67.2239 12.3599 66.374 12.6012 65.6165 13.0838C64.8775 13.5479 64.2863 14.179 63.8429 14.9772C63.3995 15.7568 63.1778 16.6571 63.1778 17.678C63.1778 18.6804 63.3995 19.59 63.8429 20.4067C64.2863 21.2234 64.8775 21.8638 65.6165 22.3279C66.374 22.792 67.2239 23.024 68.1661 23.024Z"
              fill="url(#paint2_radial_19_1925)"/>
        <path d="M85.0238 25.5299C83.5643 25.5299 82.2618 25.1865 81.1163 24.4997C79.9893 23.8129 79.1025 22.8755 78.4559 21.6875C77.8092 20.4995 77.4859 19.163 77.4859 17.678C77.4859 16.1745 77.8092 14.838 78.4559 13.6685C79.1025 12.4991 79.9893 11.571 81.1163 10.8842C82.2618 10.1974 83.5643 9.85396 85.0238 9.85396C86.003 9.85396 86.9176 10.0303 87.7674 10.383C88.6173 10.7357 89.3655 11.209 90.0122 11.803C90.6588 12.397 91.1299 13.0931 91.4255 13.8913L89.1253 15.005C88.7743 14.2254 88.2385 13.5943 87.518 13.1117C86.7975 12.6105 85.9661 12.3599 85.0238 12.3599C84.1185 12.3599 83.2964 12.5919 82.5574 13.056C81.8368 13.52 81.2641 14.1512 80.8392 14.9493C80.4142 15.7475 80.2018 16.6664 80.2018 17.7059C80.2018 18.7082 80.4142 19.6178 80.8392 20.4345C81.2641 21.2327 81.8368 21.8638 82.5574 22.3279C83.2964 22.792 84.1185 23.024 85.0238 23.024C85.9661 23.024 86.7975 22.7827 87.518 22.3001C88.2385 21.7989 88.7743 21.1399 89.1253 20.3232L91.4255 21.4926C91.1299 22.2722 90.6588 22.9683 90.0122 23.5809C89.3655 24.1749 88.6173 24.6482 87.7674 25.0009C86.9176 25.3536 86.003 25.5299 85.0238 25.5299Z"
              fill="url(#paint3_radial_19_1925)"/>
        <path d="M93.6852 25.1958V6.71353L96.2625 4.11816V18.569L95.2094 18.3184L103.135 10.1881H106.433L100.697 16.2301L106.821 25.1958H103.773L98.1747 17.0655L99.7821 16.9819L95.4311 21.5483L96.2625 19.6549V25.1958H93.6852Z"
              fill="url(#paint4_radial_19_1925)"/>
        <path d="M108.03 25.1958V6.71353L110.607 4.11816V13.1117L110.136 12.8611C110.506 11.9144 111.097 11.1812 111.91 10.6614C112.741 10.1231 113.711 9.85396 114.82 9.85396C115.891 9.85396 116.843 10.0953 117.674 10.5779C118.524 11.0605 119.189 11.7288 119.669 12.5826C120.168 13.4365 120.418 14.4018 120.418 15.4784V25.1958H117.813V16.3137C117.813 15.4784 117.656 14.773 117.341 14.1976C117.046 13.6221 116.63 13.1766 116.094 12.8611C115.559 12.5269 114.94 12.3599 114.238 12.3599C113.554 12.3599 112.935 12.5269 112.381 12.8611C111.827 13.1766 111.392 13.6314 111.078 14.2254C110.764 14.8008 110.607 15.4969 110.607 16.3137V25.1958H108.03Z"
              fill="url(#paint5_radial_19_1925)"/>
        <path d="M128.29 25.5299C127.219 25.5299 126.249 25.2793 125.38 24.7781C124.531 24.277 123.865 23.5809 123.385 22.6899C122.923 21.7803 122.692 20.7408 122.692 19.5714V10.1881H125.27V19.293C125.27 20.0354 125.417 20.6851 125.713 21.242C126.027 21.7989 126.452 22.2351 126.988 22.5507C127.542 22.8662 128.17 23.024 128.872 23.024C129.574 23.024 130.193 22.8662 130.729 22.5507C131.283 22.2351 131.708 21.7803 132.004 21.1863C132.318 20.5923 132.475 19.8869 132.475 19.0702V10.1881H135.08V25.1958H132.558V22.2722L132.974 22.5228C132.623 23.4695 132.022 24.212 131.172 24.7503C130.341 25.2701 129.38 25.5299 128.29 25.5299Z"
              fill="url(#paint6_radial_19_1925)"/>
        <path d="M145.696 25.5299C144.495 25.5299 143.396 25.2608 142.398 24.7225C141.419 24.1842 140.662 23.4231 140.126 22.4393L140.486 21.9938V25.1958H137.964V6.71353L140.542 4.11816V13.4179L140.154 12.7775C140.708 11.8865 141.465 11.1812 142.426 10.6614C143.387 10.1231 144.486 9.85396 145.724 9.85396C147.128 9.85396 148.384 10.1974 149.493 10.8842C150.62 11.571 151.507 12.5084 152.153 13.6964C152.8 14.8658 153.123 16.2023 153.123 17.7059C153.123 19.1723 152.8 20.4995 152.153 21.6875C151.507 22.8755 150.62 23.8129 149.493 24.4997C148.384 25.1865 147.119 25.5299 145.696 25.5299ZM145.502 23.024C146.444 23.024 147.285 22.792 148.024 22.3279C148.763 21.8638 149.336 21.2327 149.742 20.4345C150.167 19.6178 150.38 18.7082 150.38 17.7059C150.38 16.6664 150.167 15.7568 149.742 14.9772C149.336 14.179 148.763 13.5479 148.024 13.0838C147.285 12.6012 146.444 12.3599 145.502 12.3599C144.56 12.3599 143.71 12.5919 142.953 13.056C142.214 13.52 141.622 14.1604 141.179 14.9772C140.754 15.7754 140.542 16.6849 140.542 17.7059C140.542 18.7082 140.754 19.6178 141.179 20.4345C141.622 21.2327 142.214 21.8638 142.953 22.3279C143.71 22.792 144.56 23.024 145.502 23.024Z"
              fill="url(#paint7_radial_19_1925)"/>
    </g>
    <g filter="url(#filter1_b_19_1925)">
        <path d="M0.888429 25.4501L0.888428 4.19775L3.43877 1.64746L3.43877 22.8998H22.1413V25.4501L0.888429 25.4501Z"
              fill="url(#paint8_linear_19_1925)"/>
        <path d="M3.43877 1.64746L24.6916 1.64746C24.6916 1.64746 26.246 3.2018 27.242 4.19774C18.9422 4.19774 5.98911 4.19774 5.98911 4.19774V22.8998L3.43877 22.8998L3.43877 1.64746Z"
              fill="url(#paint9_linear_19_1925)"/>
        <path d="M3.43877 1.64746L24.6916 1.64746C24.6916 1.64746 26.246 3.2018 27.242 4.19774C18.9422 4.19774 5.98911 4.19774 5.98911 4.19774V22.8998L3.43877 22.8998L3.43877 1.64746Z"
              fill="black" fill-opacity="0.16"/>
        <path d="M27.242 4.19774C27.242 12.4973 27.242 25.4501 27.242 25.4501L24.6916 28.0004V6.74803L5.98911 6.74803L5.98911 4.19774C5.98911 4.19774 18.9422 4.19774 27.242 4.19774Z"
              fill="url(#paint10_linear_19_1925)"/>
        <path d="M24.6916 28.0004L3.43877 28.0004L0.888429 25.4501L22.1413 25.4501L22.1413 6.74803L24.6916 6.74803V28.0004Z"
              fill="url(#paint11_linear_19_1925)"/>
        <path d="M24.6916 28.0004L3.43877 28.0004L0.888429 25.4501L22.1413 25.4501L22.1413 6.74803L24.6916 6.74803V28.0004Z"
              fill="black" fill-opacity="0.08"/>
    </g>
    <g opacity="0.3" filter="url(#filter2_i_19_1925)">
        <path d="M0.887573 25.4512L0.887572 4.19881L3.43791 1.64852L3.43792 22.9009L22.1404 22.9009L22.1404 25.4512L0.887573 25.4512Z"
              stroke="url(#paint12_linear_19_1925)" stroke-opacity="0.32" stroke-width="0.164706"/>
    </g>
    <g opacity="0.3" filter="url(#filter3_i_19_1925)">
        <path d="M3.4386 1.64746L24.6914 1.64746L27.2418 4.19775L5.98894 4.19775L5.98894 22.8998L3.4386 22.8998L3.4386 1.64746Z"
              stroke="url(#paint13_linear_19_1925)" stroke-opacity="0.32" stroke-width="0.164706"/>
    </g>
    <g opacity="0.3" filter="url(#filter4_i_19_1925)">
        <path d="M27.2402 4.19727L27.2402 25.4496L24.6899 27.9999L24.6899 6.74755L5.98738 6.74755L5.98738 4.19726L27.2402 4.19727Z"
              stroke="url(#paint14_linear_19_1925)" stroke-opacity="0.32" stroke-width="0.164706"/>
    </g>
    <g opacity="0.3" filter="url(#filter5_i_19_1925)">
        <path d="M24.6914 28L3.43856 28L0.888214 25.4497L22.1411 25.4497L22.1411 6.74763L24.6914 6.74763L24.6914 28Z"
              stroke="url(#paint15_linear_19_1925)" stroke-opacity="0.32" stroke-width="0.164706"/>
    </g>
    <path d="M154.759 9.72814V0.154211H157.824C158.842 0.154211 159.725 0.359825 160.473 0.771055C161.222 1.18228 161.802 1.74772 162.214 2.46738C162.626 3.18703 162.832 4.00948 162.832 4.93475C162.832 5.86002 162.626 6.68676 162.214 7.41498C161.802 8.13463 161.222 8.70007 160.473 9.1113C159.725 9.52253 158.842 9.72814 157.824 9.72814H154.759ZM156.714 7.99327H157.875C158.488 7.99327 159.018 7.86904 159.464 7.62059C159.91 7.36357 160.254 7.00803 160.498 6.55397C160.751 6.09133 160.877 5.55159 160.877 4.93475C160.877 4.30934 160.751 3.7696 160.498 3.31554C160.254 2.86147 159.91 2.51021 159.464 2.26176C159.018 2.01331 158.488 1.88908 157.875 1.88908H156.714V7.99327Z"
          fill="url(#paint16_radial_19_1925)"/>
    <path d="M154.759 9.72814V0.154211H157.824C158.842 0.154211 159.725 0.359825 160.473 0.771055C161.222 1.18228 161.802 1.74772 162.214 2.46738C162.626 3.18703 162.832 4.00948 162.832 4.93475C162.832 5.86002 162.626 6.68676 162.214 7.41498C161.802 8.13463 161.222 8.70007 160.473 9.1113C159.725 9.52253 158.842 9.72814 157.824 9.72814H154.759ZM156.714 7.99327H157.875C158.488 7.99327 159.018 7.86904 159.464 7.62059C159.91 7.36357 160.254 7.00803 160.498 6.55397C160.751 6.09133 160.877 5.55159 160.877 4.93475C160.877 4.30934 160.751 3.7696 160.498 3.31554C160.254 2.86147 159.91 2.51021 159.464 2.26176C159.018 2.01331 158.488 1.88908 157.875 1.88908H156.714V7.99327Z"
          fill="url(#paint17_linear_19_1925)" fill-opacity="0.8" style="mix-blend-mode:overlay"/>
    <path d="M162.441 9.72814L165.62 0.154211H168.218L171.397 9.72814H169.265L168.634 7.7748H165.191L164.56 9.72814H162.441ZM165.733 6.03993H168.092L166.654 1.51641H167.184L165.733 6.03993Z"
          fill="url(#paint18_radial_19_1925)"/>
    <path d="M162.441 9.72814L165.62 0.154211H168.218L171.397 9.72814H169.265L168.634 7.7748H165.191L164.56 9.72814H162.441ZM165.733 6.03993H168.092L166.654 1.51641H167.184L165.733 6.03993Z"
          fill="url(#paint19_linear_19_1925)" fill-opacity="0.8" style="mix-blend-mode:overlay"/>
    <path d="M176.129 9.88235C175.423 9.88235 174.767 9.75813 174.161 9.50968C173.556 9.26123 173.026 8.91425 172.572 8.46875C172.126 8.01469 171.777 7.4878 171.525 6.88809C171.273 6.28838 171.146 5.63727 171.146 4.93475C171.146 4.23223 171.268 3.58112 171.512 2.98141C171.765 2.3817 172.114 1.8591 172.559 1.4136C173.013 0.968102 173.543 0.621127 174.149 0.372676C174.754 0.124225 175.414 0 176.129 0C176.844 0 177.504 0.124225 178.11 0.372676C178.715 0.621127 179.241 0.968102 179.686 1.4136C180.14 1.8591 180.489 2.3817 180.733 2.98141C180.986 3.58112 181.112 4.23223 181.112 4.93475C181.112 5.63727 180.986 6.28838 180.733 6.88809C180.481 7.4878 180.128 8.01469 179.674 8.46875C179.228 8.91425 178.702 9.26123 178.097 9.50968C177.491 9.75813 176.835 9.88235 176.129 9.88235ZM176.129 8.08322C176.558 8.08322 176.953 8.00612 177.315 7.85191C177.685 7.6977 178.009 7.48352 178.286 7.20936C178.564 6.92664 178.778 6.59252 178.929 6.20699C179.081 5.82146 179.157 5.39738 179.157 4.93475C179.157 4.47212 179.081 4.05232 178.929 3.67536C178.778 3.28983 178.564 2.95571 178.286 2.67299C178.009 2.39027 177.685 2.17609 177.315 2.03044C176.953 1.87623 176.558 1.79913 176.129 1.79913C175.7 1.79913 175.301 1.87623 174.931 2.03044C174.569 2.17609 174.25 2.39027 173.972 2.67299C173.695 2.95571 173.48 3.28983 173.329 3.67536C173.177 4.05232 173.102 4.47212 173.102 4.93475C173.102 5.39738 173.177 5.82146 173.329 6.20699C173.48 6.59252 173.695 6.92664 173.972 7.20936C174.25 7.48352 174.569 7.6977 174.931 7.85191C175.301 8.00612 175.7 8.08322 176.129 8.08322Z"
          fill="url(#paint20_radial_19_1925)"/>
    <path d="M176.129 9.88235C175.423 9.88235 174.767 9.75813 174.161 9.50968C173.556 9.26123 173.026 8.91425 172.572 8.46875C172.126 8.01469 171.777 7.4878 171.525 6.88809C171.273 6.28838 171.146 5.63727 171.146 4.93475C171.146 4.23223 171.268 3.58112 171.512 2.98141C171.765 2.3817 172.114 1.8591 172.559 1.4136C173.013 0.968102 173.543 0.621127 174.149 0.372676C174.754 0.124225 175.414 0 176.129 0C176.844 0 177.504 0.124225 178.11 0.372676C178.715 0.621127 179.241 0.968102 179.686 1.4136C180.14 1.8591 180.489 2.3817 180.733 2.98141C180.986 3.58112 181.112 4.23223 181.112 4.93475C181.112 5.63727 180.986 6.28838 180.733 6.88809C180.481 7.4878 180.128 8.01469 179.674 8.46875C179.228 8.91425 178.702 9.26123 178.097 9.50968C177.491 9.75813 176.835 9.88235 176.129 9.88235ZM176.129 8.08322C176.558 8.08322 176.953 8.00612 177.315 7.85191C177.685 7.6977 178.009 7.48352 178.286 7.20936C178.564 6.92664 178.778 6.59252 178.929 6.20699C179.081 5.82146 179.157 5.39738 179.157 4.93475C179.157 4.47212 179.081 4.05232 178.929 3.67536C178.778 3.28983 178.564 2.95571 178.286 2.67299C178.009 2.39027 177.685 2.17609 177.315 2.03044C176.953 1.87623 176.558 1.79913 176.129 1.79913C175.7 1.79913 175.301 1.87623 174.931 2.03044C174.569 2.17609 174.25 2.39027 173.972 2.67299C173.695 2.95571 173.48 3.28983 173.329 3.67536C173.177 4.05232 173.102 4.47212 173.102 4.93475C173.102 5.39738 173.177 5.82146 173.329 6.20699C173.48 6.59252 173.695 6.92664 173.972 7.20936C174.25 7.48352 174.569 7.6977 174.931 7.85191C175.301 8.00612 175.7 8.08322 176.129 8.08322Z"
          fill="url(#paint21_linear_19_1925)" fill-opacity="0.8" style="mix-blend-mode:overlay"/>
    <defs>
        <filter id="filter0_b_19_1925" x="32.5585" y="-1.15242" width="125.835" height="31.9533"
                filterUnits="userSpaceOnUse" color-interpolation-filters="sRGB">
            <feFlood flood-opacity="0" result="BackgroundImageFix"/>
            <feGaussianBlur in="BackgroundImageFix" stdDeviation="2.63529"/>
            <feComposite in2="SourceAlpha" operator="in" result="effect1_backgroundBlur_19_1925"/>
            <feBlend mode="normal" in="SourceGraphic" in2="effect1_backgroundBlur_19_1925" result="shape"/>
        </filter>
        <filter id="filter1_b_19_1925" x="-30.7347" y="-29.9757" width="89.5998" height="89.5989"
                filterUnits="userSpaceOnUse" color-interpolation-filters="sRGB">
            <feFlood flood-opacity="0" result="BackgroundImageFix"/>
            <feGaussianBlur in="BackgroundImageFix" stdDeviation="15.8116"/>
            <feComposite in2="SourceAlpha" operator="in" result="effect1_backgroundBlur_19_1925"/>
            <feBlend mode="normal" in="SourceGraphic" in2="effect1_backgroundBlur_19_1925" result="shape"/>
        </filter>
        <filter id="filter2_i_19_1925" x="0.805176" y="1.44922" width="37.2292" height="31.9898"
                filterUnits="userSpaceOnUse" color-interpolation-filters="sRGB">
            <feFlood flood-opacity="0" result="BackgroundImageFix"/>
            <feBlend mode="normal" in="SourceGraphic" in2="BackgroundImageFix" result="shape"/>
            <feColorMatrix in="SourceAlpha" type="matrix" values="0 0 0 0 0 0 0 0 0 0 0 0 0 0 0 0 0 0 127 0"
                           result="hardAlpha"/>
            <feOffset dx="15.8116" dy="7.90579"/>
            <feGaussianBlur stdDeviation="15.8116"/>
            <feComposite in2="hardAlpha" operator="arithmetic" k2="-1" k3="1"/>
            <feColorMatrix type="matrix" values="0 0 0 0 0 0 0 0 0 0 0 0 0 0 0 0 0 0 0.2 0"/>
            <feBlend mode="normal" in2="shape" result="effect1_innerShadow_19_1925"/>
        </filter>
        <filter id="filter3_i_19_1925" x="3.3562" y="1.56543" width="39.8959" height="29.3228"
                filterUnits="userSpaceOnUse" color-interpolation-filters="sRGB">
            <feFlood flood-opacity="0" result="BackgroundImageFix"/>
            <feBlend mode="normal" in="SourceGraphic" in2="BackgroundImageFix" result="shape"/>
            <feColorMatrix in="SourceAlpha" type="matrix" values="0 0 0 0 0 0 0 0 0 0 0 0 0 0 0 0 0 0 127 0"
                           result="hardAlpha"/>
            <feOffset dx="15.8116" dy="7.90579"/>
            <feGaussianBlur stdDeviation="15.8116"/>
            <feComposite in2="hardAlpha" operator="arithmetic" k2="-1" k3="1"/>
            <feColorMatrix type="matrix" values="0 0 0 0 0 0 0 0 0 0 0 0 0 0 0 0 0 0 0.2 0"/>
            <feBlend mode="normal" in2="shape" result="effect1_innerShadow_19_1925"/>
        </filter>
        <filter id="filter4_i_19_1925" x="5.90503" y="4.11523" width="37.2292" height="31.9898"
                filterUnits="userSpaceOnUse" color-interpolation-filters="sRGB">
            <feFlood flood-opacity="0" result="BackgroundImageFix"/>
            <feBlend mode="normal" in="SourceGraphic" in2="BackgroundImageFix" result="shape"/>
            <feColorMatrix in="SourceAlpha" type="matrix" values="0 0 0 0 0 0 0 0 0 0 0 0 0 0 0 0 0 0 127 0"
                           result="hardAlpha"/>
            <feOffset dx="15.8116" dy="7.90579"/>
            <feGaussianBlur stdDeviation="15.8116"/>
            <feComposite in2="hardAlpha" operator="arithmetic" k2="-1" k3="1"/>
            <feColorMatrix type="matrix" values="0 0 0 0 0 0 0 0 0 0 0 0 0 0 0 0 0 0 0.2 0"/>
            <feBlend mode="normal" in2="shape" result="effect1_innerShadow_19_1925"/>
        </filter>
        <filter id="filter5_i_19_1925" x="0.689453" y="6.66504" width="39.8959" height="29.3228"
                filterUnits="userSpaceOnUse" color-interpolation-filters="sRGB">
            <feFlood flood-opacity="0" result="BackgroundImageFix"/>
            <feBlend mode="normal" in="SourceGraphic" in2="BackgroundImageFix" result="shape"/>
            <feColorMatrix in="SourceAlpha" type="matrix" values="0 0 0 0 0 0 0 0 0 0 0 0 0 0 0 0 0 0 127 0"
                           result="hardAlpha"/>
            <feOffset dx="15.8116" dy="7.90579"/>
            <feGaussianBlur stdDeviation="15.8116"/>
            <feComposite in2="hardAlpha" operator="arithmetic" k2="-1" k3="1"/>
            <feColorMatrix type="matrix" values="0 0 0 0 0 0 0 0 0 0 0 0 0 0 0 0 0 0 0.2 0"/>
            <feBlend mode="normal" in2="shape" result="effect1_innerShadow_19_1925"/>
        </filter>
        <radialGradient id="paint0_radial_19_1925" cx="0" cy="0" r="1" gradientUnits="userSpaceOnUse"
                        gradientTransform="translate(92.9413 11.8865) rotate(90.0135) scale(58.4291 121.262)">
            <stop offset="0.297414" stop-color="white"/>
            <stop offset="1" stop-color="white" stop-opacity="0"/>
        </radialGradient>
        <radialGradient id="paint1_radial_19_1925" cx="0" cy="0" r="1" gradientUnits="userSpaceOnUse"
                        gradientTransform="translate(92.9413 11.8865) rotate(90.0135) scale(58.4291 121.262)">
            <stop offset="0.297414" stop-color="white"/>
            <stop offset="1" stop-color="white" stop-opacity="0"/>
        </radialGradient>
        <radialGradient id="paint2_radial_19_1925" cx="0" cy="0" r="1" gradientUnits="userSpaceOnUse"
                        gradientTransform="translate(92.9413 11.8865) rotate(90.0135) scale(58.4291 121.262)">
            <stop offset="0.297414" stop-color="white"/>
            <stop offset="1" stop-color="white" stop-opacity="0"/>
        </radialGradient>
        <radialGradient id="paint3_radial_19_1925" cx="0" cy="0" r="1" gradientUnits="userSpaceOnUse"
                        gradientTransform="translate(92.9413 11.8865) rotate(90.0135) scale(58.4291 121.262)">
            <stop offset="0.297414" stop-color="white"/>
            <stop offset="1" stop-color="white" stop-opacity="0"/>
        </radialGradient>
        <radialGradient id="paint4_radial_19_1925" cx="0" cy="0" r="1" gradientUnits="userSpaceOnUse"
                        gradientTransform="translate(92.9413 11.8865) rotate(90.0135) scale(58.4291 121.262)">
            <stop offset="0.297414" stop-color="white"/>
            <stop offset="1" stop-color="white" stop-opacity="0"/>
        </radialGradient>
        <radialGradient id="paint5_radial_19_1925" cx="0" cy="0" r="1" gradientUnits="userSpaceOnUse"
                        gradientTransform="translate(92.9413 11.8865) rotate(90.0135) scale(58.4291 121.262)">
            <stop offset="0.297414" stop-color="white"/>
            <stop offset="1" stop-color="white" stop-opacity="0"/>
        </radialGradient>
        <radialGradient id="paint6_radial_19_1925" cx="0" cy="0" r="1" gradientUnits="userSpaceOnUse"
                        gradientTransform="translate(92.9413 11.8865) rotate(90.0135) scale(58.4291 121.262)">
            <stop offset="0.297414" stop-color="white"/>
            <stop offset="1" stop-color="white" stop-opacity="0"/>
        </radialGradient>
        <radialGradient id="paint7_radial_19_1925" cx="0" cy="0" r="1" gradientUnits="userSpaceOnUse"
                        gradientTransform="translate(92.9413 11.8865) rotate(90.0135) scale(58.4291 121.262)">
            <stop offset="0.297414" stop-color="white"/>
            <stop offset="1" stop-color="white" stop-opacity="0"/>
        </radialGradient>
        <linearGradient id="paint8_linear_19_1925" x1="0.888427" y1="14.8239" x2="22.1063" y2="14.8239"
                        gradientUnits="userSpaceOnUse">
            <stop stop-color="white"/>
            <stop offset="1" stop-color="white" stop-opacity="0"/>
        </linearGradient>
        <linearGradient id="paint9_linear_19_1925" x1="14.0652" y1="1.64746" x2="14.0652" y2="23.3559"
                        gradientUnits="userSpaceOnUse">
            <stop stop-color="white"/>
            <stop offset="1" stop-color="white" stop-opacity="0"/>
        </linearGradient>
        <linearGradient id="paint10_linear_19_1925" x1="6.06502" y1="14.8239" x2="27.242" y2="14.8239"
                        gradientUnits="userSpaceOnUse">
            <stop stop-color="white" stop-opacity="0"/>
            <stop offset="1" stop-color="white"/>
        </linearGradient>
        <linearGradient id="paint11_linear_19_1925" x1="12.79" y1="28.0004" x2="12.79" y2="6.74804"
                        gradientUnits="userSpaceOnUse">
            <stop stop-color="white"/>
            <stop offset="1" stop-color="white" stop-opacity="0"/>
        </linearGradient>
        <linearGradient id="paint12_linear_19_1925" x1="0.887573" y1="13.5498" x2="22.1404" y2="13.5498"
                        gradientUnits="userSpaceOnUse">
            <stop stop-color="white" stop-opacity="0"/>
            <stop offset="1" stop-color="#FCFCFC"/>
        </linearGradient>
        <linearGradient id="paint13_linear_19_1925" x1="15.3402" y1="1.64746" x2="15.3402" y2="22.8998"
                        gradientUnits="userSpaceOnUse">
            <stop stop-color="white" stop-opacity="0"/>
            <stop offset="1" stop-color="#FCFCFC"/>
        </linearGradient>
        <linearGradient id="paint14_linear_19_1925" x1="27.2402" y1="16.0986" x2="5.98738" y2="16.0986"
                        gradientUnits="userSpaceOnUse">
            <stop stop-color="white" stop-opacity="0"/>
            <stop offset="1" stop-color="#FCFCFC"/>
        </linearGradient>
        <linearGradient id="paint15_linear_19_1925" x1="12.7898" y1="28" x2="12.7898" y2="6.74763"
                        gradientUnits="userSpaceOnUse">
            <stop stop-color="white" stop-opacity="0"/>
            <stop offset="1" stop-color="#FCFCFC"/>
        </linearGradient>
        <radialGradient id="paint16_radial_19_1925" cx="0" cy="0" r="1" gradientUnits="userSpaceOnUse"
                        gradientTransform="translate(153.926 -3.47976) rotate(29.8149) scale(32.3082 27.8748)">
            <stop stop-color="white" stop-opacity="0.8"/>
            <stop offset="1" stop-color="white" stop-opacity="0.32"/>
        </radialGradient>
        <linearGradient id="paint17_linear_19_1925" x1="153.926" y1="-3.47976" x2="183.944" y2="2.34053"
                        gradientUnits="userSpaceOnUse">
            <stop stop-color="#5227FF"/>
            <stop offset="1" stop-color="#6100FF"/>
        </linearGradient>
        <radialGradient id="paint18_radial_19_1925" cx="0" cy="0" r="1" gradientUnits="userSpaceOnUse"
                        gradientTransform="translate(153.926 -3.47976) rotate(29.8149) scale(32.3082 27.8748)">
            <stop stop-color="white" stop-opacity="0.8"/>
            <stop offset="1" stop-color="white" stop-opacity="0.32"/>
        </radialGradient>
        <linearGradient id="paint19_linear_19_1925" x1="153.926" y1="-3.47976" x2="183.944" y2="2.34053"
                        gradientUnits="userSpaceOnUse">
            <stop stop-color="#5227FF"/>
            <stop offset="1" stop-color="#6100FF"/>
        </linearGradient>
        <radialGradient id="paint20_radial_19_1925" cx="0" cy="0" r="1" gradientUnits="userSpaceOnUse"
                        gradientTransform="translate(153.926 -3.47976) rotate(29.8149) scale(32.3082 27.8748)">
            <stop stop-color="white" stop-opacity="0.8"/>
            <stop offset="1" stop-color="white" stop-opacity="0.32"/>
        </radialGradient>
        <linearGradient id="paint21_linear_19_1925" x1="153.926" y1="-3.47976" x2="183.944" y2="2.34053"
                        gradientUnits="userSpaceOnUse">
            <stop stop-color="#5227FF"/>
            <stop offset="1" stop-color="#6100FF"/>
        </linearGradient>
    </defs>
</svg>
