<svg width="227" height="97" viewBox="0 0 227 97" fill="none" xmlns="http://www.w3.org/2000/svg">
<g filter="url(#filter0_b_38_18683)">
<path d="M8 55.1901H17.0353V63.623C17.5516 60.8694 18.4838 58.7038 19.8319 57.1262C21.1801 55.5199 23.0158 54.7168 25.3392 54.7168C27.8633 54.7168 29.7277 55.4482 30.9324 56.9111C32.1658 58.3739 32.8399 60.4248 32.9546 63.0637C33.5283 60.4822 34.4892 58.4456 35.8373 56.9541C37.1854 55.4626 38.9925 54.7168 41.2585 54.7168C43.9261 54.7168 45.8909 55.5486 47.1529 57.2123C48.4437 58.8759 49.0891 61.1276 49.0891 63.9672V79.2842H39.9677V67.065C39.9677 65.3727 39.7383 64.1106 39.2793 63.2788C38.8491 62.447 37.9742 62.0311 36.6548 62.0311C35.4214 62.0311 34.5179 62.533 33.9442 63.537C33.3705 64.5409 33.0837 65.9894 33.0837 67.8825V79.2842H24.0054V67.065C24.0054 65.4014 23.7759 64.1537 23.317 63.3218C22.858 62.4613 21.9689 62.0311 20.6494 62.0311C19.3587 62.0311 18.4408 62.533 17.8958 63.537C17.3508 64.5122 17.0783 65.9464 17.0783 67.8395V79.2842H8V55.1901Z" fill="white"/>
<path d="M64.605 79.7144C63.4864 79.7144 62.4251 79.6284 61.4212 79.4563C60.4459 79.3129 59.5281 79.0977 58.6676 78.8109C57.8071 78.4954 57.0183 78.1225 56.3012 77.6923C55.6128 77.262 54.9817 76.7744 54.4081 76.2294C53.8344 75.6844 53.3324 75.0821 52.9022 74.4223C52.5006 73.7626 52.1564 73.0599 51.8696 72.3141C51.5827 71.5397 51.3676 70.7365 51.2242 69.9047C51.0808 69.0729 51.0091 68.198 51.0091 67.2802C51.0091 66.391 51.0808 65.5305 51.2242 64.6986C51.3963 63.8381 51.6258 63.035 51.9126 62.2892C52.1994 61.5148 52.558 60.7977 52.9882 60.138C53.4472 59.4783 53.9635 58.8759 54.5371 58.3309C55.1108 57.7572 55.7562 57.2553 56.4733 56.825C57.1904 56.3661 57.9648 55.9789 58.7966 55.6633C59.6571 55.3478 60.5607 55.1184 61.5072 54.9749C62.4825 54.8028 63.5151 54.7168 64.605 54.7168C65.7237 54.7168 66.7706 54.8028 67.7459 54.9749C68.7498 55.1184 69.6677 55.3478 70.4995 55.6633C71.36 55.9789 72.1488 56.3518 72.8659 56.782C73.583 57.2123 74.2283 57.7142 74.802 58.2879C75.3757 58.8329 75.8776 59.4496 76.3079 60.138C76.7381 60.7977 77.0967 61.5004 77.3835 62.2462C77.699 62.992 77.9285 63.7951 78.0719 64.6556C78.2153 65.4874 78.2871 66.3479 78.2871 67.2371C78.2871 68.1263 78.2153 68.9868 78.0719 69.8186C77.9285 70.6505 77.699 71.4393 77.3835 72.185C77.0967 72.9308 76.7381 73.6335 76.3079 74.2933C75.8776 74.953 75.3757 75.5697 74.802 76.1433C74.2283 76.6883 73.583 77.1903 72.8659 77.6492C72.1488 78.0795 71.36 78.4524 70.4995 78.7679C69.6677 79.0834 68.7498 79.3129 67.7459 79.4563C66.7706 79.6284 65.7237 79.7144 64.605 79.7144ZM64.6481 72.6583C66.197 72.6583 67.2869 72.185 67.918 71.2385C68.549 70.2919 68.8645 68.9295 68.8645 67.1511C68.8645 65.3153 68.5203 63.9385 67.8319 63.0207C67.1722 62.1028 66.1109 61.6439 64.6481 61.6439C63.1852 61.6439 62.1096 62.1171 61.4212 63.0637C60.7328 63.9816 60.3886 65.344 60.3886 67.1511C60.3599 68.9868 60.6897 70.3636 61.3781 71.2815C62.0666 72.1994 63.1565 72.6583 64.6481 72.6583Z" fill="white"/>
<path d="M93.5546 79.7144C92.436 79.7144 91.3747 79.6284 90.3708 79.4563C89.3955 79.3129 88.4776 79.0977 87.6171 78.8109C86.7566 78.4954 85.9678 78.1225 85.2507 77.6923C84.5623 77.262 83.9313 76.7744 83.3576 76.2294C82.784 75.6844 82.282 75.0821 81.8518 74.4223C81.4502 73.7626 81.106 73.0599 80.8192 72.3141C80.5323 71.5397 80.3172 70.7365 80.1738 69.9047C80.0304 69.0729 79.9586 68.198 79.9586 67.2802C79.9586 66.391 80.0304 65.5305 80.1738 64.6986C80.3459 63.8381 80.5753 63.035 80.8622 62.2892C81.149 61.5148 81.5076 60.7977 81.9378 60.138C82.3968 59.4783 82.913 58.8759 83.4867 58.3309C84.0604 57.7572 84.7058 57.2553 85.4228 56.825C86.1399 56.3661 86.9144 55.9789 87.7462 55.6633C88.6067 55.3478 89.5102 55.1184 90.4568 54.9749C91.432 54.8028 92.4646 54.7168 93.5546 54.7168C94.6733 54.7168 95.7202 54.8028 96.6955 54.9749C97.6994 55.1184 98.6173 55.3478 99.4491 55.6633C100.31 55.9789 101.098 56.3518 101.815 56.782C102.533 57.2123 103.178 57.7142 103.752 58.2879C104.325 58.8329 104.827 59.4496 105.257 60.138C105.688 60.7977 106.046 61.5004 106.333 62.2462C106.649 62.992 106.878 63.7951 107.022 64.6556C107.165 65.4874 107.237 66.3479 107.237 67.2371C107.237 68.1263 107.165 68.9868 107.022 69.8186C106.878 70.6505 106.649 71.4393 106.333 72.185C106.046 72.9308 105.688 73.6335 105.257 74.2933C104.827 74.953 104.325 75.5697 103.752 76.1433C103.178 76.6883 102.533 77.1903 101.815 77.6492C101.098 78.0795 100.31 78.4524 99.4491 78.7679C98.6173 79.0834 97.6994 79.3129 96.6955 79.4563C95.7202 79.6284 94.6733 79.7144 93.5546 79.7144ZM93.5976 72.6583C95.1465 72.6583 96.2365 72.185 96.8676 71.2385C97.4986 70.2919 97.8141 68.9295 97.8141 67.1511C97.8141 65.3153 97.4699 63.9385 96.7815 63.0207C96.1218 62.1028 95.0605 61.6439 93.5976 61.6439C92.1348 61.6439 91.0592 62.1171 90.3708 63.0637C89.6824 63.9816 89.3381 65.344 89.3381 67.1511C89.3095 68.9868 89.6393 70.3636 90.3277 71.2815C91.0161 72.1994 92.1061 72.6583 93.5976 72.6583Z" fill="white"/>
<path d="M109.218 79.2842V55.1901H118.34V63.4939C118.856 60.7403 119.788 58.5891 121.136 57.0402C122.485 55.4912 124.335 54.7168 126.687 54.7168C129.383 54.7168 131.405 55.5486 132.753 57.2123C134.13 58.8759 134.818 61.1276 134.818 63.9672V79.2842H125.611V67.065C125.611 65.3727 125.353 64.1106 124.837 63.2788C124.349 62.447 123.431 62.0311 122.083 62.0311C120.764 62.0311 119.817 62.533 119.243 63.537C118.67 64.5122 118.383 65.9464 118.383 67.8395V79.2842H109.218Z" fill="white"/>
<path d="M136.765 67.2371C136.765 66.2045 136.823 65.2436 136.937 64.3544C137.081 63.4366 137.282 62.6047 137.54 61.859C137.798 61.0845 138.099 60.3818 138.443 59.7507C138.788 59.091 139.175 58.503 139.605 57.9867C140.064 57.4704 140.552 57.0258 141.068 56.6529C141.613 56.2514 142.172 55.9215 142.746 55.6633C143.348 55.4052 143.965 55.2188 144.596 55.104C145.256 54.9606 145.93 54.8889 146.618 54.8889C148.827 54.8889 150.519 55.5056 151.695 56.739C152.9 57.9437 153.732 59.679 154.191 61.945L154.148 61.0845V45.5524H163.269V79.2842H154.191V73.9921L154.363 70.8512C153.904 73.3467 153.086 75.4263 151.91 77.0899C150.763 78.7249 148.87 79.5423 146.231 79.5423C143.277 79.5423 140.953 78.4954 139.261 76.4015C137.597 74.3076 136.765 71.2528 136.765 67.2371ZM154.492 67.1511C154.492 65.258 154.133 63.8668 153.416 62.9776C152.699 62.0884 151.609 61.6439 150.146 61.6439C148.769 61.6439 147.722 62.1028 147.005 63.0207C146.317 63.9385 145.973 65.3153 145.973 67.1511C145.944 68.9581 146.26 70.3349 146.919 71.2815C147.608 72.1994 148.712 72.6583 150.232 72.6583C151.638 72.6583 152.699 72.2137 153.416 71.3245C154.133 70.4067 154.492 69.0155 154.492 67.1511Z" fill="white"/>
<path d="M165.082 74.4654C165.082 73.1459 165.426 72.0703 166.114 71.2385C166.831 70.4067 167.764 69.7039 168.911 69.1302C170.23 68.4992 171.679 68.0116 173.256 67.6674C174.834 67.3232 176.498 66.9216 178.247 66.4627C179.509 66.1185 180.384 65.7743 180.872 65.4301C181.36 65.0859 181.603 64.6126 181.603 64.0102C181.603 63.3792 181.345 62.8486 180.829 62.4183C180.341 61.9881 179.524 61.7729 178.376 61.7729C177.143 61.7729 176.053 62.1315 175.107 62.8486C174.16 63.537 173.357 64.6126 172.697 66.0755L165.039 61.4718C166.53 59.4065 168.409 57.7716 170.675 56.5669C172.97 55.3335 175.609 54.7168 178.592 54.7168C182.378 54.7168 185.232 55.5486 187.154 57.2123C189.104 58.8759 190.079 61.2853 190.079 64.4405V70.507C190.079 71.2241 190.194 71.7404 190.424 72.056C190.653 72.3428 191.04 72.4862 191.585 72.4862C191.815 72.4862 192.015 72.4719 192.188 72.4432C192.388 72.3858 192.575 72.3428 192.747 72.3141V78.8109C192.116 78.983 191.341 79.1408 190.424 79.2842C189.534 79.4563 188.602 79.5423 187.627 79.5423C185.533 79.5423 183.97 79.1264 182.937 78.2946C181.905 77.4628 181.403 76.043 181.431 74.0351L181.517 71.4966C181.345 72.185 181.13 72.8448 180.872 73.4758C180.614 74.0781 180.313 74.6662 179.968 75.2398C179.624 75.7848 179.237 76.3011 178.807 76.7887C178.376 77.2477 177.903 77.6636 177.387 78.0365C176.871 78.4093 176.311 78.7392 175.709 79.026C175.135 79.2842 174.519 79.485 173.859 79.6284C173.199 79.7718 172.496 79.8435 171.751 79.8435C169.571 79.8435 167.907 79.3416 166.76 78.3376C165.641 77.3337 165.082 76.043 165.082 74.4654ZM181.646 68.2697V66.0324C181.474 66.4053 181.144 66.7495 180.657 67.065C180.169 67.3519 179.395 67.6387 178.333 67.9255C176.813 68.2984 175.709 68.7574 175.021 69.3023C174.332 69.8186 173.988 70.4927 173.988 71.3245C173.988 71.9556 174.232 72.4719 174.719 72.8734C175.207 73.275 175.924 73.4758 176.871 73.4758C178.305 73.4758 179.438 73.0025 180.27 72.056C181.13 71.0807 181.589 69.8186 181.646 68.2697Z" fill="white"/>
<path d="M189.725 55.1901H199.105L203.192 65.6022L203.881 68.1837L204.612 65.6022L208.699 55.1901H218.079L204.096 88.5776H194.458L198.976 78.1225L189.725 55.1901Z" fill="white"/>
<path fill-rule="evenodd" clip-rule="evenodd" d="M8 25.3844C8 16.1023 15.5246 8.57764 24.8067 8.57764H71.8655C81.1476 8.57764 88.6723 16.1023 88.6723 25.3844C88.6723 34.6665 81.1476 42.1911 71.8655 42.1911H24.8067C15.5246 42.1911 8 34.6665 8 25.3844ZM35.8158 32.2477C34.5943 32.0841 33.4362 31.7282 32.4047 31.0164C30.8122 29.9198 29.9526 28.3614 29.8169 26.3509C29.8048 26.1393 29.8089 25.9277 29.8129 25.716C29.8149 25.6102 29.8169 25.5044 29.8169 25.3986C29.7264 23.744 30.1064 22.2434 31.1289 20.964C32.0247 19.8481 33.1919 19.2036 34.5039 18.8284C36.2683 18.3378 38.0598 18.2897 39.8423 18.6457C39.8694 18.6457 39.9056 18.6553 39.9328 18.6649C38.4489 16.9719 36.4764 16.0965 34.2777 15.6444C31.6989 15.1153 29.1111 15.1923 26.5595 15.9041C24.6685 16.4332 22.9765 17.3759 21.6826 18.9824C20.1987 20.8293 19.6558 23.0033 19.7825 25.389C19.7825 25.5393 19.7795 25.6907 19.7764 25.8424C19.7704 26.147 19.7643 26.4532 19.7825 26.7549C19.9815 29.66 21.2302 31.9206 23.5284 33.4982C25.0304 34.5275 26.7043 35.0373 28.4597 35.2778C31.3189 35.6722 34.1238 35.4991 36.8202 34.3351C38.0326 33.8157 39.0822 33.0846 39.9328 32.1034C38.5846 32.4016 37.2093 32.4112 35.8068 32.2188L35.8158 32.2477ZM55.417 18.9849C53.8395 20.8284 53.2624 22.9982 53.397 25.3889C53.397 25.5429 53.3938 25.6969 53.3906 25.8505C53.3842 26.1567 53.3778 26.4614 53.397 26.7619C53.6086 29.6615 54.936 31.9178 57.3792 33.502C58.976 34.5293 60.7555 35.0382 62.6311 35.2782C65.6707 35.6718 68.6622 35.499 71.5286 34.3373C73.5389 33.5212 75.1357 32.2154 76.1553 30.2568C77.2711 28.0965 77.3576 25.8018 77.0787 23.4687C76.9344 22.259 76.5497 21.1164 75.9052 20.0699C74.2796 17.4199 71.7306 16.2006 68.8161 15.6437C66.0651 15.1157 63.3141 15.1925 60.6016 15.903C58.5912 16.4406 56.7925 17.3719 55.417 18.9849Z" fill="white"/>
</g>
<defs>
<filter id="filter0_b_38_18683" x="-24" y="-23.4224" width="274.079" height="144" filterUnits="userSpaceOnUse" color-interpolation-filters="sRGB">
<feFlood flood-opacity="0" result="BackgroundImageFix"/>
<feGaussianBlur in="BackgroundImageFix" stdDeviation="16"/>
<feComposite in2="SourceAlpha" operator="in" result="effect1_backgroundBlur_38_18683"/>
<feBlend mode="normal" in="SourceGraphic" in2="effect1_backgroundBlur_38_18683" result="shape"/>
</filter>
</defs>
</svg>
