<svg width="24" height="24" viewBox="0 0 24 24" fill="none" xmlns="http://www.w3.org/2000/svg">
    <path fill-rule="evenodd" clip-rule="evenodd"
          d="M13.7531 1.19359C12.955 0.0852097 11.287 0.0852097 10.4889 1.19359C9.93246 1.96631 8.90302 2.24703 8.03558 1.85426L7.95767 1.81898C6.72481 1.26075 5.3093 2.08397 5.18484 3.43159C5.09735 4.37885 4.34514 5.12811 3.39755 5.21186L3.31499 5.21916C1.9729 5.33778 1.15956 6.75714 1.73579 7.97501C2.14161 8.83273 1.86383 9.85953 1.08252 10.398C-0.0382473 11.1703 -0.0382472 12.8305 1.08252 13.6029C1.86383 14.1413 2.14161 15.1681 1.73579 16.0258C1.15956 17.2437 1.9729 18.663 3.31499 18.7817L3.39755 18.789C4.34514 18.8727 5.09735 19.622 5.18484 20.5692C5.3093 21.9168 6.72481 22.7401 7.95767 22.1818L8.03558 22.1466C8.90302 21.7538 9.93246 22.0345 10.4889 22.8072C11.287 23.9156 12.955 23.9156 13.7531 22.8072C14.3095 22.0345 15.339 21.7538 16.2064 22.1466L16.2843 22.1818C17.5172 22.7401 18.9327 21.9168 19.0572 20.5692C19.1446 19.622 19.8969 18.8727 20.8445 18.789L20.927 18.7817C22.2691 18.663 23.0824 17.2437 22.5062 16.0258C22.1004 15.1681 22.3782 14.1413 23.1595 13.6029C24.2802 12.8305 24.2802 11.1703 23.1595 10.398C22.3782 9.85953 22.1004 8.83273 22.5062 7.97501C23.0824 6.75714 22.2691 5.33778 20.927 5.21916L20.8444 5.21186C19.8969 5.12811 19.1446 4.37885 19.0572 3.43159C18.9327 2.08398 17.5172 1.26075 16.2843 1.81898L16.2064 1.85426C15.339 2.24703 14.3095 1.96631 13.7531 1.19359ZM18.2306 9.60686C18.6415 9.18475 18.6325 8.50943 18.2104 8.09848C17.7883 7.68754 17.1129 7.69659 16.702 8.1187L10.3389 14.6547L7.53957 11.7792C7.12863 11.3571 6.4533 11.3481 6.03119 11.759C5.60908 12.17 5.60003 12.8453 6.01097 13.2674L9.57465 16.9279C9.77545 17.1342 10.0511 17.2505 10.3389 17.2505C10.6268 17.2505 10.9024 17.1342 11.1032 16.9279L18.2306 9.60686Z"
          fill="url(#paint0_radial_23_2544)"/>
    <path fill-rule="evenodd" clip-rule="evenodd"
          d="M13.7531 1.19359C12.955 0.0852097 11.287 0.0852097 10.4889 1.19359C9.93246 1.96631 8.90302 2.24703 8.03558 1.85426L7.95767 1.81898C6.72481 1.26075 5.3093 2.08397 5.18484 3.43159C5.09735 4.37885 4.34514 5.12811 3.39755 5.21186L3.31499 5.21916C1.9729 5.33778 1.15956 6.75714 1.73579 7.97501C2.14161 8.83273 1.86383 9.85953 1.08252 10.398C-0.0382473 11.1703 -0.0382472 12.8305 1.08252 13.6029C1.86383 14.1413 2.14161 15.1681 1.73579 16.0258C1.15956 17.2437 1.9729 18.663 3.31499 18.7817L3.39755 18.789C4.34514 18.8727 5.09735 19.622 5.18484 20.5692C5.3093 21.9168 6.72481 22.7401 7.95767 22.1818L8.03558 22.1466C8.90302 21.7538 9.93246 22.0345 10.4889 22.8072C11.287 23.9156 12.955 23.9156 13.7531 22.8072C14.3095 22.0345 15.339 21.7538 16.2064 22.1466L16.2843 22.1818C17.5172 22.7401 18.9327 21.9168 19.0572 20.5692C19.1446 19.622 19.8969 18.8727 20.8445 18.789L20.927 18.7817C22.2691 18.663 23.0824 17.2437 22.5062 16.0258C22.1004 15.1681 22.3782 14.1413 23.1595 13.6029C24.2802 12.8305 24.2802 11.1703 23.1595 10.398C22.3782 9.85953 22.1004 8.83273 22.5062 7.97501C23.0824 6.75714 22.2691 5.33778 20.927 5.21916L20.8444 5.21186C19.8969 5.12811 19.1446 4.37885 19.0572 3.43159C18.9327 2.08398 17.5172 1.26075 16.2843 1.81898L16.2064 1.85426C15.339 2.24703 14.3095 1.96631 13.7531 1.19359ZM18.2306 9.60686C18.6415 9.18475 18.6325 8.50943 18.2104 8.09848C17.7883 7.68754 17.1129 7.69659 16.702 8.1187L10.3389 14.6547L7.53957 11.7792C7.12863 11.3571 6.4533 11.3481 6.03119 11.759C5.60908 12.17 5.60003 12.8453 6.01097 13.2674L9.57465 16.9279C9.77545 17.1342 10.0511 17.2505 10.3389 17.2505C10.6268 17.2505 10.9024 17.1342 11.1032 16.9279L18.2306 9.60686Z"
          fill="url(#paint1_linear_23_2544)" fill-opacity="0.7" style="mix-blend-mode:overlay"/>
    <defs>
        <radialGradient id="paint0_radial_23_2544" cx="0" cy="0" r="1" gradientUnits="userSpaceOnUse"
                        gradientTransform="translate(-0.508616 -7.83368) rotate(56.2595) scale(45.499 42.0298)">
            <stop stop-color="white" stop-opacity="0.8"/>
            <stop offset="1" stop-color="white" stop-opacity="0.32"/>
        </radialGradient>
        <linearGradient id="paint1_linear_23_2544" x1="0.242717" y1="0.362273" x2="24.2791" y2="0.655452"
                        gradientUnits="userSpaceOnUse">
            <stop stop-color="#5227FF"/>
            <stop offset="1" stop-color="#6100FF"/>
        </linearGradient>
    </defs>
</svg>
